<svg xmlns="http://www.w3.org/2000/svg" xmlns:xlink="http://www.w3.org/1999/xlink" width="500" zoomAndPan="magnify" viewBox="0 0 375 374.999991" height="500" preserveAspectRatio="xMidYMid meet" version="1.0"><defs><g/><clipPath id="cfe2ea05e4"><path d="M 131.25 139.042969 L 243.75 139.042969 L 243.75 251.542969 L 131.25 251.542969 Z M 131.25 139.042969 " clip-rule="nonzero"/></clipPath><clipPath id="eab5c8643e"><path d="M 148.5 139.042969 L 226.5 139.042969 C 231.074219 139.042969 235.460938 140.863281 238.699219 144.097656 C 241.933594 147.332031 243.75 151.71875 243.75 156.292969 L 243.75 234.292969 C 243.75 238.871094 241.933594 243.257812 238.699219 246.492188 C 235.460938 249.726562 231.074219 251.542969 226.5 251.542969 L 148.5 251.542969 C 143.925781 251.542969 139.539062 249.726562 136.300781 246.492188 C 133.066406 243.257812 131.25 238.871094 131.25 234.292969 L 131.25 156.292969 C 131.25 151.71875 133.066406 147.332031 136.300781 144.097656 C 139.539062 140.863281 143.925781 139.042969 148.5 139.042969 " clip-rule="nonzero"/></clipPath></defs><g clip-path="url(#cfe2ea05e4)"><g clip-path="url(#eab5c8643e)"><path fill="#444444" d="M 131.25 139.042969 L 243.75 139.042969 L 243.75 251.542969 L 131.25 251.542969 Z M 131.25 139.042969 " fill-opacity="1" fill-rule="nonzero"/></g></g><g fill="#ffffff" fill-opacity="1"><g transform="translate(133.816402, 201.769439)"><g><path d="M 16.390625 0.4375 C 13.628906 0.4375 11.191406 -0.132812 9.078125 -1.28125 C 6.972656 -2.4375 5.328125 -4.164062 4.140625 -6.46875 C 2.953125 -8.769531 2.359375 -11.609375 2.359375 -14.984375 C 2.359375 -18.367188 2.953125 -21.210938 4.140625 -23.515625 C 5.328125 -25.816406 6.972656 -27.539062 9.078125 -28.6875 C 11.191406 -29.832031 13.628906 -30.40625 16.390625 -30.40625 C 19.273438 -30.40625 21.722656 -29.84375 23.734375 -28.71875 C 25.753906 -27.59375 27.195312 -25.875 28.0625 -23.5625 L 23.734375 -20.921875 L 23.21875 -20.9375 C 22.570312 -22.5 21.695312 -23.617188 20.59375 -24.296875 C 19.5 -24.972656 18.097656 -25.3125 16.390625 -25.3125 C 13.898438 -25.3125 11.957031 -24.484375 10.5625 -22.828125 C 9.164062 -21.179688 8.46875 -18.566406 8.46875 -14.984375 C 8.46875 -11.421875 9.164062 -8.816406 10.5625 -7.171875 C 11.957031 -5.523438 13.898438 -4.703125 16.390625 -4.703125 C 20.285156 -4.703125 22.671875 -6.59375 23.546875 -10.375 L 24.0625 -10.375 L 28.421875 -8.09375 C 27.597656 -5.25 26.195312 -3.113281 24.21875 -1.6875 C 22.238281 -0.269531 19.628906 0.4375 16.390625 0.4375 Z M 16.390625 0.4375 "/></g></g></g><g fill="#ffffff" fill-opacity="1"><g transform="translate(163.216398, 201.769439)"><g><path d="M 13.140625 0.4375 C 10.929688 0.4375 8.988281 -0.015625 7.3125 -0.921875 C 5.632812 -1.835938 4.332031 -3.171875 3.40625 -4.921875 C 2.488281 -6.679688 2.03125 -8.804688 2.03125 -11.296875 C 2.03125 -13.785156 2.488281 -15.910156 3.40625 -17.671875 C 4.332031 -19.441406 5.632812 -20.78125 7.3125 -21.6875 C 8.988281 -22.59375 10.929688 -23.046875 13.140625 -23.046875 C 15.359375 -23.046875 17.304688 -22.59375 18.984375 -21.6875 C 20.660156 -20.78125 21.960938 -19.441406 22.890625 -17.671875 C 23.816406 -15.910156 24.28125 -13.785156 24.28125 -11.296875 C 24.28125 -8.804688 23.816406 -6.679688 22.890625 -4.921875 C 21.960938 -3.171875 20.660156 -1.835938 18.984375 -0.921875 C 17.304688 -0.015625 15.359375 0.4375 13.140625 0.4375 Z M 13.140625 -4.390625 C 16.660156 -4.390625 18.421875 -6.691406 18.421875 -11.296875 C 18.421875 -13.691406 17.96875 -15.445312 17.0625 -16.5625 C 16.15625 -17.675781 14.847656 -18.234375 13.140625 -18.234375 C 9.628906 -18.234375 7.875 -15.921875 7.875 -11.296875 C 7.875 -6.691406 9.628906 -4.390625 13.140625 -4.390625 Z M 13.140625 -4.390625 "/></g></g></g><g fill="#ffffff" fill-opacity="1"><g transform="translate(189.500076, 201.769439)"><g><path d="M 11.171875 0.4375 C 9.378906 0.4375 7.796875 0.00390625 6.421875 -0.859375 C 5.054688 -1.734375 3.984375 -3.046875 3.203125 -4.796875 C 2.421875 -6.554688 2.03125 -8.722656 2.03125 -11.296875 C 2.03125 -13.878906 2.429688 -16.050781 3.234375 -17.8125 C 4.035156 -19.570312 5.140625 -20.882812 6.546875 -21.75 C 7.960938 -22.613281 9.601562 -23.046875 11.46875 -23.046875 C 12.875 -23.046875 14.09375 -22.800781 15.125 -22.3125 C 16.15625 -21.832031 17.023438 -21.082031 17.734375 -20.0625 L 18.171875 -20.15625 L 18.171875 -31.703125 L 23.84375 -31.703125 L 23.84375 0 L 18.171875 0 L 18.171875 -2.9375 L 17.734375 -3.015625 C 17.109375 -1.953125 16.25 -1.109375 15.15625 -0.484375 C 14.0625 0.128906 12.734375 0.4375 11.171875 0.4375 Z M 13.015625 -4.390625 C 14.617188 -4.390625 15.882812 -4.957031 16.8125 -6.09375 C 17.75 -7.238281 18.21875 -8.972656 18.21875 -11.296875 C 18.21875 -13.617188 17.75 -15.351562 16.8125 -16.5 C 15.882812 -17.65625 14.617188 -18.234375 13.015625 -18.234375 C 11.347656 -18.234375 10.070312 -17.675781 9.1875 -16.5625 C 8.3125 -15.445312 7.875 -13.691406 7.875 -11.296875 C 7.875 -8.921875 8.3125 -7.175781 9.1875 -6.0625 C 10.070312 -4.945312 11.347656 -4.390625 13.015625 -4.390625 Z M 13.015625 -4.390625 "/></g></g></g><g fill="#ffffff" fill-opacity="1"><g transform="translate(216.603838, 201.769439)"><g><path d="M 22.359375 -10.03125 L 7.8125 -10.03125 C 7.976562 -8.0625 8.539062 -6.628906 9.5 -5.734375 C 10.457031 -4.835938 11.757812 -4.390625 13.40625 -4.390625 C 14.707031 -4.390625 15.757812 -4.628906 16.5625 -5.109375 C 17.375 -5.597656 18.023438 -6.335938 18.515625 -7.328125 L 18.953125 -7.328125 L 22.71875 -4.90625 C 21.976562 -3.3125 20.863281 -2.019531 19.375 -1.03125 C 17.882812 -0.0507812 15.894531 0.4375 13.40625 0.4375 C 11.070312 0.4375 9.050781 -0.00390625 7.34375 -0.890625 C 5.644531 -1.785156 4.332031 -3.109375 3.40625 -4.859375 C 2.488281 -6.617188 2.03125 -8.765625 2.03125 -11.296875 C 2.03125 -13.867188 2.515625 -16.035156 3.484375 -17.796875 C 4.453125 -19.566406 5.765625 -20.882812 7.421875 -21.75 C 9.078125 -22.613281 10.9375 -23.046875 13 -23.046875 C 16.195312 -23.046875 18.644531 -22.195312 20.34375 -20.5 C 22.050781 -18.8125 22.90625 -16.328125 22.90625 -13.046875 C 22.90625 -11.859375 22.863281 -10.9375 22.78125 -10.28125 Z M 17.46875 -13.703125 C 17.414062 -15.421875 17.015625 -16.671875 16.265625 -17.453125 C 15.523438 -18.242188 14.4375 -18.640625 13 -18.640625 C 10.132812 -18.640625 8.445312 -16.992188 7.9375 -13.703125 Z M 17.46875 -13.703125 "/></g></g></g><g fill="#ffffff" fill-opacity="1"><g transform="translate(146.806635, 225.969506)"><g><path d="M 3.078125 -11.421875 L 3.078125 -1.109375 L 8.578125 -1.109375 L 8.578125 0 L 1.734375 0 L 1.734375 -11.421875 Z M 3.078125 -11.421875 "/></g></g></g><g fill="#ffffff" fill-opacity="1"><g transform="translate(155.859117, 225.969506)"><g><path d="M 3.5625 0.171875 C 2.707031 0.171875 2.039062 -0.0507812 1.5625 -0.5 C 1.09375 -0.945312 0.859375 -1.582031 0.859375 -2.40625 C 0.859375 -2.914062 0.960938 -3.34375 1.171875 -3.6875 C 1.378906 -4.039062 1.703125 -4.328125 2.140625 -4.546875 C 2.585938 -4.773438 3.171875 -4.945312 3.890625 -5.0625 C 4.515625 -5.164062 4.988281 -5.28125 5.3125 -5.40625 C 5.632812 -5.539062 5.851562 -5.6875 5.96875 -5.84375 C 6.082031 -6.007812 6.140625 -6.21875 6.140625 -6.46875 C 6.140625 -6.851562 6.003906 -7.148438 5.734375 -7.359375 C 5.460938 -7.566406 5.03125 -7.671875 4.4375 -7.671875 C 3.882812 -7.671875 3.40625 -7.5625 3 -7.34375 C 2.601562 -7.132812 2.238281 -6.816406 1.90625 -6.390625 L 1.75 -6.390625 L 1.125 -7.265625 C 1.488281 -7.734375 1.953125 -8.101562 2.515625 -8.375 C 3.078125 -8.644531 3.71875 -8.78125 4.4375 -8.78125 C 5.457031 -8.78125 6.207031 -8.554688 6.6875 -8.109375 C 7.164062 -7.671875 7.40625 -7.054688 7.40625 -6.265625 L 7.40625 -1.703125 C 7.40625 -1.222656 7.609375 -0.984375 8.015625 -0.984375 C 8.148438 -0.984375 8.28125 -1.003906 8.40625 -1.046875 L 8.515625 -1.015625 L 8.671875 -0.140625 C 8.578125 -0.078125 8.453125 -0.03125 8.296875 0 C 8.140625 0.0390625 7.984375 0.0625 7.828125 0.0625 C 7.347656 0.0625 6.988281 -0.0390625 6.75 -0.25 C 6.507812 -0.457031 6.351562 -0.765625 6.28125 -1.171875 L 6.125 -1.1875 C 5.875 -0.738281 5.539062 -0.398438 5.125 -0.171875 C 4.707031 0.0546875 4.1875 0.171875 3.5625 0.171875 Z M 3.84375 -0.859375 C 4.320312 -0.859375 4.734375 -0.96875 5.078125 -1.1875 C 5.429688 -1.40625 5.703125 -1.710938 5.890625 -2.109375 C 6.078125 -2.515625 6.171875 -2.984375 6.171875 -3.515625 L 6.171875 -4.609375 L 6.03125 -4.640625 C 5.832031 -4.503906 5.59375 -4.390625 5.3125 -4.296875 C 5.039062 -4.203125 4.660156 -4.117188 4.171875 -4.046875 C 3.671875 -3.984375 3.269531 -3.878906 2.96875 -3.734375 C 2.675781 -3.597656 2.46875 -3.421875 2.34375 -3.203125 C 2.21875 -2.984375 2.15625 -2.71875 2.15625 -2.40625 C 2.15625 -1.894531 2.300781 -1.507812 2.59375 -1.25 C 2.894531 -0.988281 3.3125 -0.859375 3.84375 -0.859375 Z M 3.84375 -0.859375 "/></g></g></g><g fill="#ffffff" fill-opacity="1"><g transform="translate(164.771008, 225.969506)"><g><path d="M 1.5 0 L 1.5 -8.625 L 2.71875 -8.625 L 2.71875 -7.265625 L 2.875 -7.234375 C 3.164062 -7.734375 3.53125 -8.113281 3.96875 -8.375 C 4.414062 -8.644531 4.960938 -8.78125 5.609375 -8.78125 C 6.640625 -8.78125 7.390625 -8.515625 7.859375 -7.984375 C 8.328125 -7.460938 8.5625 -6.648438 8.5625 -5.546875 L 8.5625 0 L 7.28125 0 L 7.28125 -5.515625 C 7.28125 -6.035156 7.210938 -6.453125 7.078125 -6.765625 C 6.953125 -7.085938 6.75 -7.316406 6.46875 -7.453125 C 6.1875 -7.597656 5.820312 -7.671875 5.375 -7.671875 C 4.59375 -7.671875 3.960938 -7.414062 3.484375 -6.90625 C 3.015625 -6.394531 2.78125 -5.566406 2.78125 -4.421875 L 2.78125 0 Z M 1.5 0 "/></g></g></g><g fill="#ffffff" fill-opacity="1"><g transform="translate(174.69046, 225.969506)"><g><path d="M 4.4375 3.65625 C 3.082031 3.65625 2.09375 3.425781 1.46875 2.96875 C 0.84375 2.519531 0.53125 1.921875 0.53125 1.171875 C 0.53125 0.691406 0.675781 0.304688 0.96875 0.015625 C 1.257812 -0.273438 1.679688 -0.484375 2.234375 -0.609375 L 2.234375 -0.765625 C 1.972656 -0.921875 1.773438 -1.097656 1.640625 -1.296875 C 1.503906 -1.503906 1.4375 -1.75 1.4375 -2.03125 C 1.4375 -2.363281 1.539062 -2.632812 1.75 -2.84375 C 1.96875 -3.050781 2.285156 -3.207031 2.703125 -3.3125 L 2.703125 -3.484375 C 1.765625 -3.972656 1.296875 -4.773438 1.296875 -5.890625 C 1.296875 -6.453125 1.421875 -6.953125 1.671875 -7.390625 C 1.929688 -7.828125 2.296875 -8.164062 2.765625 -8.40625 C 3.242188 -8.65625 3.796875 -8.78125 4.421875 -8.78125 C 5.148438 -8.78125 5.753906 -8.625 6.234375 -8.3125 C 6.421875 -8.507812 6.554688 -8.722656 6.640625 -8.953125 C 6.734375 -9.191406 6.796875 -9.457031 6.828125 -9.75 L 6.984375 -9.84375 L 8.03125 -9.59375 C 7.976562 -9.15625 7.847656 -8.785156 7.640625 -8.484375 C 7.429688 -8.179688 7.132812 -7.929688 6.75 -7.734375 L 6.75 -7.578125 C 7.019531 -7.359375 7.222656 -7.097656 7.359375 -6.796875 C 7.492188 -6.503906 7.5625 -6.164062 7.5625 -5.78125 C 7.5625 -5.238281 7.429688 -4.75 7.171875 -4.3125 C 6.910156 -3.882812 6.539062 -3.546875 6.0625 -3.296875 C 5.59375 -3.046875 5.046875 -2.921875 4.421875 -2.921875 C 4.347656 -2.921875 4.21875 -2.925781 4.03125 -2.9375 C 3.820312 -2.945312 3.671875 -2.953125 3.578125 -2.953125 C 3.304688 -2.953125 3.085938 -2.878906 2.921875 -2.734375 C 2.765625 -2.597656 2.6875 -2.421875 2.6875 -2.203125 C 2.6875 -1.929688 2.769531 -1.734375 2.9375 -1.609375 C 3.113281 -1.484375 3.40625 -1.410156 3.8125 -1.390625 L 5.84375 -1.328125 C 6.726562 -1.296875 7.378906 -1.085938 7.796875 -0.703125 C 8.222656 -0.328125 8.4375 0.207031 8.4375 0.90625 C 8.4375 1.414062 8.296875 1.878906 8.015625 2.296875 C 7.742188 2.710938 7.304688 3.039062 6.703125 3.28125 C 6.109375 3.53125 5.351562 3.65625 4.4375 3.65625 Z M 4.421875 -4.015625 C 5.035156 -4.015625 5.507812 -4.171875 5.84375 -4.484375 C 6.175781 -4.804688 6.34375 -5.253906 6.34375 -5.828125 C 6.34375 -6.421875 6.175781 -6.878906 5.84375 -7.203125 C 5.507812 -7.523438 5.035156 -7.6875 4.421875 -7.6875 C 3.804688 -7.6875 3.335938 -7.523438 3.015625 -7.203125 C 2.691406 -6.890625 2.53125 -6.429688 2.53125 -5.828125 C 2.53125 -5.253906 2.691406 -4.804688 3.015625 -4.484375 C 3.335938 -4.171875 3.804688 -4.015625 4.421875 -4.015625 Z M 4.4375 2.5625 C 5.070312 2.5625 5.59375 2.488281 6 2.34375 C 6.40625 2.207031 6.695312 2.023438 6.875 1.796875 C 7.050781 1.566406 7.140625 1.304688 7.140625 1.015625 C 7.140625 0.765625 7.085938 0.5625 6.984375 0.40625 C 6.890625 0.25 6.734375 0.128906 6.515625 0.046875 C 6.304688 -0.0351562 6.019531 -0.0859375 5.65625 -0.109375 L 3.71875 -0.203125 L 3.453125 -0.203125 C 2.367188 -0.179688 1.828125 0.238281 1.828125 1.0625 C 1.828125 2.0625 2.695312 2.5625 4.4375 2.5625 Z M 4.4375 2.5625 "/></g></g></g><g fill="#ffffff" fill-opacity="1"><g transform="translate(183.516429, 225.969506)"><g><path d="M 4.265625 0.171875 C 3.285156 0.171875 2.554688 -0.0859375 2.078125 -0.609375 C 1.609375 -1.128906 1.375 -1.882812 1.375 -2.875 L 1.375 -8.625 L 2.640625 -8.625 L 2.640625 -2.90625 C 2.640625 -1.601562 3.253906 -0.953125 4.484375 -0.953125 C 5.265625 -0.953125 5.878906 -1.207031 6.328125 -1.71875 C 6.785156 -2.226562 7.015625 -3.054688 7.015625 -4.203125 L 7.015625 -8.625 L 8.296875 -8.625 L 8.296875 0 L 7.09375 0 L 7.09375 -1.359375 L 6.921875 -1.390625 C 6.628906 -0.867188 6.273438 -0.476562 5.859375 -0.21875 C 5.441406 0.0390625 4.910156 0.171875 4.265625 0.171875 Z M 4.265625 0.171875 "/></g></g></g><g fill="#ffffff" fill-opacity="1"><g transform="translate(193.303107, 225.969506)"><g><path d="M 3.5625 0.171875 C 2.707031 0.171875 2.039062 -0.0507812 1.5625 -0.5 C 1.09375 -0.945312 0.859375 -1.582031 0.859375 -2.40625 C 0.859375 -2.914062 0.960938 -3.34375 1.171875 -3.6875 C 1.378906 -4.039062 1.703125 -4.328125 2.140625 -4.546875 C 2.585938 -4.773438 3.171875 -4.945312 3.890625 -5.0625 C 4.515625 -5.164062 4.988281 -5.28125 5.3125 -5.40625 C 5.632812 -5.539062 5.851562 -5.6875 5.96875 -5.84375 C 6.082031 -6.007812 6.140625 -6.21875 6.140625 -6.46875 C 6.140625 -6.851562 6.003906 -7.148438 5.734375 -7.359375 C 5.460938 -7.566406 5.03125 -7.671875 4.4375 -7.671875 C 3.882812 -7.671875 3.40625 -7.5625 3 -7.34375 C 2.601562 -7.132812 2.238281 -6.816406 1.90625 -6.390625 L 1.75 -6.390625 L 1.125 -7.265625 C 1.488281 -7.734375 1.953125 -8.101562 2.515625 -8.375 C 3.078125 -8.644531 3.71875 -8.78125 4.4375 -8.78125 C 5.457031 -8.78125 6.207031 -8.554688 6.6875 -8.109375 C 7.164062 -7.671875 7.40625 -7.054688 7.40625 -6.265625 L 7.40625 -1.703125 C 7.40625 -1.222656 7.609375 -0.984375 8.015625 -0.984375 C 8.148438 -0.984375 8.28125 -1.003906 8.40625 -1.046875 L 8.515625 -1.015625 L 8.671875 -0.140625 C 8.578125 -0.078125 8.453125 -0.03125 8.296875 0 C 8.140625 0.0390625 7.984375 0.0625 7.828125 0.0625 C 7.347656 0.0625 6.988281 -0.0390625 6.75 -0.25 C 6.507812 -0.457031 6.351562 -0.765625 6.28125 -1.171875 L 6.125 -1.1875 C 5.875 -0.738281 5.539062 -0.398438 5.125 -0.171875 C 4.707031 0.0546875 4.1875 0.171875 3.5625 0.171875 Z M 3.84375 -0.859375 C 4.320312 -0.859375 4.734375 -0.96875 5.078125 -1.1875 C 5.429688 -1.40625 5.703125 -1.710938 5.890625 -2.109375 C 6.078125 -2.515625 6.171875 -2.984375 6.171875 -3.515625 L 6.171875 -4.609375 L 6.03125 -4.640625 C 5.832031 -4.503906 5.59375 -4.390625 5.3125 -4.296875 C 5.039062 -4.203125 4.660156 -4.117188 4.171875 -4.046875 C 3.671875 -3.984375 3.269531 -3.878906 2.96875 -3.734375 C 2.675781 -3.597656 2.46875 -3.421875 2.34375 -3.203125 C 2.21875 -2.984375 2.15625 -2.71875 2.15625 -2.40625 C 2.15625 -1.894531 2.300781 -1.507812 2.59375 -1.25 C 2.894531 -0.988281 3.3125 -0.859375 3.84375 -0.859375 Z M 3.84375 -0.859375 "/></g></g></g><g fill="#ffffff" fill-opacity="1"><g transform="translate(202.214998, 225.969506)"><g><path d="M 4.4375 3.65625 C 3.082031 3.65625 2.09375 3.425781 1.46875 2.96875 C 0.84375 2.519531 0.53125 1.921875 0.53125 1.171875 C 0.53125 0.691406 0.675781 0.304688 0.96875 0.015625 C 1.257812 -0.273438 1.679688 -0.484375 2.234375 -0.609375 L 2.234375 -0.765625 C 1.972656 -0.921875 1.773438 -1.097656 1.640625 -1.296875 C 1.503906 -1.503906 1.4375 -1.75 1.4375 -2.03125 C 1.4375 -2.363281 1.539062 -2.632812 1.75 -2.84375 C 1.96875 -3.050781 2.285156 -3.207031 2.703125 -3.3125 L 2.703125 -3.484375 C 1.765625 -3.972656 1.296875 -4.773438 1.296875 -5.890625 C 1.296875 -6.453125 1.421875 -6.953125 1.671875 -7.390625 C 1.929688 -7.828125 2.296875 -8.164062 2.765625 -8.40625 C 3.242188 -8.65625 3.796875 -8.78125 4.421875 -8.78125 C 5.148438 -8.78125 5.753906 -8.625 6.234375 -8.3125 C 6.421875 -8.507812 6.554688 -8.722656 6.640625 -8.953125 C 6.734375 -9.191406 6.796875 -9.457031 6.828125 -9.75 L 6.984375 -9.84375 L 8.03125 -9.59375 C 7.976562 -9.15625 7.847656 -8.785156 7.640625 -8.484375 C 7.429688 -8.179688 7.132812 -7.929688 6.75 -7.734375 L 6.75 -7.578125 C 7.019531 -7.359375 7.222656 -7.097656 7.359375 -6.796875 C 7.492188 -6.503906 7.5625 -6.164062 7.5625 -5.78125 C 7.5625 -5.238281 7.429688 -4.75 7.171875 -4.3125 C 6.910156 -3.882812 6.539062 -3.546875 6.0625 -3.296875 C 5.59375 -3.046875 5.046875 -2.921875 4.421875 -2.921875 C 4.347656 -2.921875 4.21875 -2.925781 4.03125 -2.9375 C 3.820312 -2.945312 3.671875 -2.953125 3.578125 -2.953125 C 3.304688 -2.953125 3.085938 -2.878906 2.921875 -2.734375 C 2.765625 -2.597656 2.6875 -2.421875 2.6875 -2.203125 C 2.6875 -1.929688 2.769531 -1.734375 2.9375 -1.609375 C 3.113281 -1.484375 3.40625 -1.410156 3.8125 -1.390625 L 5.84375 -1.328125 C 6.726562 -1.296875 7.378906 -1.085938 7.796875 -0.703125 C 8.222656 -0.328125 8.4375 0.207031 8.4375 0.90625 C 8.4375 1.414062 8.296875 1.878906 8.015625 2.296875 C 7.742188 2.710938 7.304688 3.039062 6.703125 3.28125 C 6.109375 3.53125 5.351562 3.65625 4.4375 3.65625 Z M 4.421875 -4.015625 C 5.035156 -4.015625 5.507812 -4.171875 5.84375 -4.484375 C 6.175781 -4.804688 6.34375 -5.253906 6.34375 -5.828125 C 6.34375 -6.421875 6.175781 -6.878906 5.84375 -7.203125 C 5.507812 -7.523438 5.035156 -7.6875 4.421875 -7.6875 C 3.804688 -7.6875 3.335938 -7.523438 3.015625 -7.203125 C 2.691406 -6.890625 2.53125 -6.429688 2.53125 -5.828125 C 2.53125 -5.253906 2.691406 -4.804688 3.015625 -4.484375 C 3.335938 -4.171875 3.804688 -4.015625 4.421875 -4.015625 Z M 4.4375 2.5625 C 5.070312 2.5625 5.59375 2.488281 6 2.34375 C 6.40625 2.207031 6.695312 2.023438 6.875 1.796875 C 7.050781 1.566406 7.140625 1.304688 7.140625 1.015625 C 7.140625 0.765625 7.085938 0.5625 6.984375 0.40625 C 6.890625 0.25 6.734375 0.128906 6.515625 0.046875 C 6.304688 -0.0351562 6.019531 -0.0859375 5.65625 -0.109375 L 3.71875 -0.203125 L 3.453125 -0.203125 C 2.367188 -0.179688 1.828125 0.238281 1.828125 1.0625 C 1.828125 2.0625 2.695312 2.5625 4.4375 2.5625 Z M 4.4375 2.5625 "/></g></g></g><g fill="#ffffff" fill-opacity="1"><g transform="translate(211.040967, 225.969506)"><g><path d="M 8.21875 -4.015625 L 2.296875 -4.015625 C 2.328125 -2.972656 2.578125 -2.207031 3.046875 -1.71875 C 3.515625 -1.226562 4.15625 -0.984375 4.96875 -0.984375 C 5.582031 -0.984375 6.078125 -1.09375 6.453125 -1.3125 C 6.828125 -1.53125 7.117188 -1.875 7.328125 -2.34375 L 7.5 -2.34375 L 8.328125 -1.84375 C 8.078125 -1.21875 7.675781 -0.722656 7.125 -0.359375 C 6.570312 -0.00390625 5.851562 0.171875 4.96875 0.171875 C 4.132812 0.171875 3.414062 0.00390625 2.8125 -0.328125 C 2.21875 -0.660156 1.757812 -1.160156 1.4375 -1.828125 C 1.113281 -2.492188 0.953125 -3.320312 0.953125 -4.3125 C 0.953125 -5.289062 1.117188 -6.113281 1.453125 -6.78125 C 1.796875 -7.457031 2.265625 -7.957031 2.859375 -8.28125 C 3.453125 -8.613281 4.128906 -8.78125 4.890625 -8.78125 C 5.992188 -8.78125 6.851562 -8.46875 7.46875 -7.84375 C 8.09375 -7.226562 8.40625 -6.304688 8.40625 -5.078125 C 8.40625 -4.597656 8.394531 -4.273438 8.375 -4.109375 Z M 7.15625 -5.078125 C 7.132812 -5.992188 6.929688 -6.660156 6.546875 -7.078125 C 6.160156 -7.492188 5.609375 -7.703125 4.890625 -7.703125 C 4.128906 -7.703125 3.535156 -7.492188 3.109375 -7.078125 C 2.679688 -6.660156 2.421875 -5.992188 2.328125 -5.078125 Z M 7.15625 -5.078125 "/></g></g></g><g fill="#ffffff" fill-opacity="1"><g transform="translate(220.226224, 225.969506)"><g><path d="M 3.9375 0.171875 C 3.394531 0.171875 2.890625 0.0976562 2.421875 -0.046875 C 1.960938 -0.191406 1.570312 -0.390625 1.25 -0.640625 C 0.9375 -0.890625 0.71875 -1.171875 0.59375 -1.484375 L 1.34375 -2.265625 L 1.5 -2.265625 C 1.78125 -1.835938 2.117188 -1.515625 2.515625 -1.296875 C 2.910156 -1.085938 3.382812 -0.984375 3.9375 -0.984375 C 4.570312 -0.984375 5.050781 -1.101562 5.375 -1.34375 C 5.707031 -1.59375 5.875 -1.941406 5.875 -2.390625 C 5.875 -2.722656 5.773438 -3 5.578125 -3.21875 C 5.378906 -3.445312 5.054688 -3.613281 4.609375 -3.71875 L 3.15625 -4.078125 C 2.375 -4.265625 1.804688 -4.5625 1.453125 -4.96875 C 1.097656 -5.375 0.921875 -5.878906 0.921875 -6.484375 C 0.921875 -6.953125 1.039062 -7.359375 1.28125 -7.703125 C 1.519531 -8.046875 1.863281 -8.3125 2.3125 -8.5 C 2.757812 -8.6875 3.296875 -8.78125 3.921875 -8.78125 C 4.710938 -8.78125 5.332031 -8.671875 5.78125 -8.453125 C 6.238281 -8.234375 6.597656 -7.925781 6.859375 -7.53125 L 6.140625 -6.828125 L 5.984375 -6.828125 C 5.703125 -7.140625 5.398438 -7.363281 5.078125 -7.5 C 4.753906 -7.644531 4.367188 -7.71875 3.921875 -7.71875 C 3.347656 -7.71875 2.910156 -7.613281 2.609375 -7.40625 C 2.304688 -7.207031 2.15625 -6.914062 2.15625 -6.53125 C 2.15625 -6.1875 2.257812 -5.90625 2.46875 -5.6875 C 2.6875 -5.476562 3.0625 -5.304688 3.59375 -5.171875 L 5.03125 -4.828125 C 5.78125 -4.648438 6.320312 -4.351562 6.65625 -3.9375 C 6.988281 -3.53125 7.15625 -3.019531 7.15625 -2.40625 C 7.15625 -1.894531 7.035156 -1.445312 6.796875 -1.0625 C 6.554688 -0.675781 6.191406 -0.375 5.703125 -0.15625 C 5.222656 0.0625 4.632812 0.171875 3.9375 0.171875 Z M 3.9375 0.171875 "/></g></g></g></svg>