<svg xmlns="http://www.w3.org/2000/svg" xmlns:xlink="http://www.w3.org/1999/xlink" width="500" zoomAndPan="magnify" viewBox="0 0 375 374.999991" height="500" preserveAspectRatio="xMidYMid meet" version="1.0"><defs><g/><clipPath id="265e1daab2"><path d="M 112.5 117 L 262.5 117 L 262.5 267 L 112.5 267 Z M 112.5 117 " clip-rule="nonzero"/></clipPath><clipPath id="a2117609d7"><path d="M 112.5 154 L 161 154 L 161 213 L 112.5 213 Z M 112.5 154 " clip-rule="nonzero"/></clipPath></defs><g clip-path="url(#265e1daab2)"><path fill="#f0efeb" d="M 262.496094 192 C 262.496094 233.417969 228.917969 266.996094 187.5 266.996094 C 153.085938 266.996094 124.089844 243.820312 115.261719 212.226562 C 115.199219 212.015625 115.144531 211.808594 115.085938 211.597656 C 114.78125 210.476562 114.507812 209.34375 114.253906 208.203125 C 114.253906 208.191406 114.25 208.183594 114.246094 208.171875 C 113.101562 202.960938 112.5 197.550781 112.5 192 C 112.5 181.953125 114.472656 172.375 118.058594 163.621094 L 118.058594 163.617188 C 118.40625 162.761719 118.773438 161.910156 119.152344 161.066406 C 119.84375 159.542969 120.582031 158.046875 121.375 156.582031 C 121.59375 156.167969 121.820312 155.757812 122.050781 155.351562 C 134.890625 132.460938 159.390625 117 187.5 117 C 222.828125 117 252.449219 141.425781 260.398438 174.3125 C 260.445312 174.503906 260.492188 174.695312 260.539062 174.890625 C 260.875 176.339844 261.171875 177.808594 261.421875 179.292969 C 261.574219 180.183594 261.710938 181.078125 261.832031 181.972656 C 262.269531 185.25 262.496094 188.597656 262.496094 192 Z M 262.496094 192 " fill-opacity="1" fill-rule="nonzero"/></g><g clip-path="url(#a2117609d7)"><path fill="#f66503" d="M 160.304688 196.035156 C 159.722656 200.964844 159.066406 205.886719 158.582031 210.828125 C 158.449219 212.179688 157.941406 212.390625 156.746094 212.335938 C 145.15625 211.832031 133.558594 212.046875 121.960938 212.023438 C 119.722656 212.019531 117.492188 212.140625 115.261719 212.226562 C 115.199219 212.015625 115.144531 211.808594 115.085938 211.597656 C 114.78125 210.476562 114.507812 209.34375 114.253906 208.203125 C 114.523438 208.140625 114.789062 208.082031 115.058594 208.023438 C 117.25 207.5625 117.96875 206.652344 118.027344 204.394531 C 118.136719 199.996094 118.253906 195.605469 118.265625 191.210938 C 118.28125 184.242188 118.21875 177.273438 118.175781 170.308594 C 118.160156 168.128906 118.09375 165.957031 118.0625 163.78125 C 118.0625 163.726562 118.058594 163.671875 118.058594 163.621094 L 118.058594 163.617188 C 118.011719 161.675781 117.667969 160.617188 116.632812 159.953125 C 116.046875 159.582031 115.246094 159.332031 114.15625 159.132812 C 113.609375 159.03125 113.054688 158.949219 112.5 158.855469 L 112.5 155.054688 C 114.640625 155.148438 116.785156 155.25 118.929688 155.304688 C 119.5 155.316406 120.070312 155.328125 120.640625 155.335938 C 121.109375 155.339844 121.578125 155.347656 122.050781 155.351562 C 131.371094 155.464844 140.703125 155.636719 150.019531 155.183594 C 152.285156 155.070312 154.589844 155.078125 156.804688 154.425781 L 157.328125 154.425781 C 157.644531 154.785156 157.613281 155.210938 157.585938 155.648438 C 157.292969 160.386719 156.976562 165.125 156.730469 169.867188 C 156.683594 170.71875 156.4375 171.042969 155.59375 170.929688 C 155.207031 170.875 154.804688 170.878906 154.417969 170.925781 C 153.730469 171.011719 153.457031 170.742188 153.28125 170.054688 C 152.761719 168.035156 152.347656 165.980469 151.609375 164.023438 C 150.160156 160.1875 148.746094 159.179688 144.714844 159.179688 C 139.527344 159.179688 134.339844 159.175781 129.144531 159.183594 C 127.164062 159.183594 127.007812 159.351562 127.007812 161.355469 C 127.007812 167.636719 127.027344 173.917969 126.984375 180.195312 C 126.980469 181.191406 127.207031 181.546875 128.269531 181.527344 C 131.886719 181.453125 135.507812 181.550781 139.109375 181.148438 C 141.359375 180.894531 142.09375 180.289062 142.644531 178.144531 C 143.003906 176.75 143.390625 175.363281 143.648438 173.953125 C 143.808594 173.054688 144.144531 172.738281 145.09375 172.765625 C 147.449219 172.820312 147.46875 172.769531 147.289062 175.125 C 146.859375 180.824219 146.929688 186.53125 147.140625 192.234375 C 147.179688 193.316406 146.890625 193.648438 145.785156 193.601562 C 143.679688 193.515625 143.679688 193.582031 143.222656 191.523438 C 143.011719 190.585938 142.816406 189.652344 142.566406 188.726562 C 142.050781 186.835938 140.828125 185.707031 138.839844 185.632812 C 135.1875 185.496094 131.523438 185.457031 127.867188 185.351562 C 127.144531 185.324219 126.996094 185.632812 126.996094 186.277344 C 127.015625 191.945312 126.957031 197.617188 127.027344 203.28125 C 127.0625 206.324219 128.6875 208.007812 131.75 208.066406 C 136.757812 208.164062 141.777344 208.175781 146.789062 208.050781 C 150.324219 207.949219 152.683594 205.917969 154.132812 202.796875 C 155.140625 200.621094 156.0625 198.414062 157.03125 196.226562 C 157.378906 195.433594 159.578125 194.824219 160.242188 195.328125 C 160.527344 195.542969 160.335938 195.792969 160.304688 196.035156 Z M 160.304688 196.035156 " fill-opacity="1" fill-rule="nonzero"/></g><path fill="#f66604" d="M 261.832031 181.972656 C 257.582031 192.441406 253.121094 202.832031 248.632812 213.199219 C 246.742188 217.570312 244.285156 221.628906 240.773438 224.9375 C 238.339844 227.222656 235.519531 228.605469 232.207031 229.328125 C 231.621094 229.457031 230.75 229.527344 229.832031 229.5625 C 227.464844 229.652344 225.089844 229.324219 222.839844 228.578125 C 222.316406 228.40625 221.804688 228.203125 221.316406 227.921875 C 220.6875 227.558594 220.480469 227.207031 220.691406 226.480469 C 221.554688 223.550781 222.050781 220.539062 222.4375 217.515625 C 222.558594 216.582031 222.90625 216.285156 223.800781 216.324219 C 224.117188 216.339844 224.4375 216.320312 224.75 216.265625 C 225.640625 216.105469 226.082031 216.355469 226.214844 217.355469 C 226.433594 218.988281 226.808594 220.605469 227.15625 222.226562 C 227.625 224.429688 228.824219 225.261719 231.09375 225.03125 C 234.5625 224.675781 237.171875 222.820312 239.398438 220.300781 C 240.847656 218.664062 242.003906 216.820312 243.035156 214.894531 C 243.339844 214.324219 243.3125 213.859375 243.09375 213.300781 C 238.832031 202.359375 234.488281 191.449219 229.789062 180.679688 C 228.984375 178.847656 227.875 177.539062 225.828125 177.085938 C 224.332031 176.757812 225.0625 175.457031 225.015625 174.589844 C 224.960938 173.59375 225.863281 174.050781 226.296875 174.082031 C 231.957031 174.496094 237.617188 174.277344 243.277344 174.058594 C 243.75 174.039062 244.511719 173.796875 244.34375 174.675781 C 244.195312 175.445312 245.082031 176.589844 243.632812 176.953125 C 243 177.109375 242.359375 177.238281 241.722656 177.394531 C 239.273438 177.992188 238.550781 179.210938 239.371094 181.605469 C 241.75 188.519531 244.339844 195.351562 247 202.160156 C 247.265625 202.839844 247.546875 203.511719 247.933594 204.460938 C 248.429688 203.386719 248.839844 202.5625 249.191406 201.71875 C 251.933594 195.132812 254.675781 188.550781 257.398438 181.953125 C 258.289062 179.796875 257.738281 178.554688 255.585938 177.726562 C 254.9375 177.472656 254.277344 177.234375 253.601562 177.082031 C 252.929688 176.933594 252.714844 176.59375 252.703125 175.90625 C 252.675781 173.988281 252.648438 173.933594 254.5625 174.074219 C 256.507812 174.214844 258.453125 174.300781 260.398438 174.3125 C 260.445312 174.503906 260.492188 174.695312 260.539062 174.890625 C 260.875 176.339844 261.171875 177.808594 261.421875 179.296875 C 261.574219 180.183594 261.710938 181.074219 261.832031 181.972656 Z M 261.832031 181.972656 " fill-opacity="1" fill-rule="nonzero"/><path fill="#f66604" d="M 209.078125 172.972656 C 213.132812 173.035156 216.363281 173.421875 219.539062 174.289062 C 220.414062 174.527344 220.632812 174.867188 220.503906 175.832031 C 220.175781 178.289062 219.992188 180.773438 219.882812 183.25 C 219.839844 184.210938 219.5625 184.433594 218.621094 184.550781 C 217.183594 184.726562 216.488281 184.289062 216.195312 182.867188 C 215.953125 181.726562 215.425781 180.644531 215.128906 179.511719 C 214.722656 177.945312 213.710938 177.09375 212.21875 176.644531 C 209.972656 175.96875 207.738281 175.984375 205.554688 176.820312 C 202.257812 178.082031 201.300781 181.769531 203.515625 184.535156 C 204.691406 186.003906 206.292969 186.890625 207.949219 187.6875 C 210.339844 188.835938 212.789062 189.878906 215.136719 191.113281 C 218.265625 192.753906 220.847656 194.933594 221.792969 198.574219 C 223.136719 203.769531 220.894531 208.800781 216.074219 211.171875 C 211.917969 213.21875 207.511719 213.332031 203.039062 212.683594 C 200.710938 212.347656 198.425781 211.808594 196.179688 211.089844 C 195.59375 210.902344 195.375 210.707031 195.449219 210.007812 C 195.789062 206.921875 195.738281 203.824219 195.445312 200.738281 C 195.359375 199.875 195.628906 199.78125 196.390625 199.675781 C 197.949219 199.457031 198.804688 199.976562 199.179688 201.527344 C 199.421875 202.535156 199.945312 203.472656 200.265625 204.464844 C 201.820312 209.242188 205.699219 210.125 209.175781 209.828125 C 211.722656 209.609375 213.828125 208.601562 214.648438 205.921875 C 215.453125 203.296875 214.589844 200.816406 212.277344 198.972656 C 210.207031 197.316406 207.738281 196.410156 205.367188 195.332031 C 203.738281 194.589844 202.121094 193.839844 200.617188 192.867188 C 196.808594 190.398438 195.128906 186.910156 195.691406 182.398438 C 196.273438 177.769531 199.15625 175.15625 203.402344 173.8125 C 205.492188 173.152344 207.65625 172.914062 209.078125 172.972656 Z M 209.078125 172.972656 " fill-opacity="1" fill-rule="nonzero"/><path fill="#f66503" d="M 168.84375 192.046875 C 168.84375 188.078125 168.808594 184.109375 168.867188 180.140625 C 168.878906 179.195312 168.589844 178.972656 167.695312 179.011719 C 166.085938 179.082031 164.46875 178.996094 162.855469 179.046875 C 162.101562 179.070312 161.820312 178.90625 161.78125 178.058594 C 161.714844 176.753906 161.972656 176.128906 163.464844 175.851562 C 167.683594 175.074219 170.289062 172.257812 171.949219 168.453125 C 172.613281 166.929688 173.113281 165.347656 173.375 163.714844 C 173.523438 162.800781 173.894531 162.527344 174.820312 162.554688 C 176.957031 162.617188 176.957031 162.5625 176.957031 164.679688 C 176.957031 167.601562 176.996094 170.523438 176.9375 173.445312 C 176.917969 174.339844 177.113281 174.652344 178.066406 174.597656 C 181.28125 174.414062 184.503906 174.332031 187.722656 174.175781 C 189.25 174.101562 189.246094 174.066406 189.054688 175.570312 C 188.945312 176.433594 188.738281 177.308594 188.78125 178.167969 C 188.847656 179.503906 188.203125 179.597656 187.113281 179.488281 C 184.167969 179.203125 181.207031 179.039062 178.257812 178.769531 C 177.292969 178.679688 176.921875 178.847656 176.929688 179.957031 C 176.988281 186.585938 176.957031 193.214844 176.960938 199.847656 C 176.960938 201.242188 177.0625 202.632812 177.410156 203.992188 C 178.3125 207.503906 180.699219 208.914062 184.203125 207.976562 C 185.796875 207.554688 187.203125 206.777344 188.265625 205.496094 C 188.65625 205.027344 188.847656 205.066406 189.234375 205.511719 C 190.53125 207.011719 190.566406 207.371094 189.367188 208.945312 C 187.960938 210.789062 186.042969 211.867188 183.871094 212.511719 C 181.367188 213.253906 178.820312 213.40625 176.257812 212.835938 C 171.660156 211.816406 168.894531 208.429688 168.851562 203.695312 C 168.8125 199.8125 168.84375 195.929688 168.84375 192.046875 Z M 168.84375 192.046875 " fill-opacity="1" fill-rule="nonzero"/><g fill="#f66604" fill-opacity="0.4"><g transform="translate(62.948248, 105.401643)"><g><path d="M 31.558594 -18 C 28.738281 -10.378906 22.378906 -7.5 17.578125 -7.5 C 12.839844 -7.5 8.160156 -10.320312 8.160156 -14.28125 C 8.160156 -15.179688 8.28125 -16.199219 8.640625 -17.21875 L 16.199219 -38.28125 C 17.640625 -42.238281 20.101562 -42.839844 21.539062 -42.839844 C 22.921875 -42.839844 23.878906 -42 23.878906 -40.199219 C 23.878906 -39.359375 23.640625 -38.28125 23.160156 -37.078125 C 22.980469 -36.660156 22.921875 -36.238281 22.921875 -35.820312 C 22.921875 -33.71875 24.960938 -31.980469 27.300781 -31.980469 C 29.398438 -31.980469 31.738281 -33.421875 32.820312 -37.378906 C 33.238281 -38.941406 33.421875 -40.378906 33.421875 -41.640625 C 33.421875 -48.238281 28.199219 -52.078125 21.359375 -52.078125 C 16.980469 -52.078125 10.199219 -50.28125 7.019531 -41.28125 L -0.480469 -19.859375 C -1.140625 -18 -1.5 -15.960938 -1.5 -14.160156 C -1.5 -6.300781 5.699219 0 16.140625 0 C 24.480469 0 34.859375 -4.261719 38.578125 -16.019531 C 38.699219 -16.5 38.761719 -16.921875 38.761719 -17.28125 C 38.761719 -19.378906 36.898438 -20.578125 35.039062 -20.578125 C 33.480469 -20.578125 31.980469 -19.800781 31.558594 -18 Z M 31.558594 -18 "/></g></g></g><g fill="#f66604" fill-opacity="0.4"><g transform="translate(92.288219, 105.401643)"><g><path d="M 34.199219 -17.398438 C 31.558594 -10.199219 28.140625 -7.140625 25.441406 -7.140625 C 24.300781 -7.140625 23.578125 -7.800781 23.578125 -8.699219 C 23.578125 -8.941406 23.640625 -9.238281 23.761719 -9.480469 L 28.679688 -23.460938 C 29.101562 -24.601562 29.21875 -25.679688 29.21875 -26.699219 C 29.21875 -31.5 25.441406 -35.21875 20.578125 -35.21875 C 19.140625 -35.21875 18 -34.980469 16.738281 -34.441406 L 20.519531 -45.480469 C 20.820312 -46.441406 21.121094 -47.339844 21.121094 -48.121094 C 21.121094 -50.640625 19.140625 -52.078125 17.160156 -52.078125 C 14.820312 -52.078125 13.378906 -50.699219 12.238281 -47.519531 L -2.160156 -6.71875 C -2.460938 -5.878906 -2.578125 -5.101562 -2.578125 -4.378906 C -2.578125 -1.679688 -0.601562 0 1.441406 0 C 3.179688 0 4.980469 -1.078125 5.878906 -3.601562 L 13.140625 -24.121094 C 14.398438 -26.398438 16.441406 -28.140625 18.300781 -28.140625 C 19.5 -28.140625 20.339844 -27.238281 20.339844 -26.160156 C 20.339844 -25.800781 20.28125 -25.441406 20.101562 -25.078125 L 15.71875 -12.539062 C 15.238281 -11.101562 15 -9.78125 15 -8.578125 C 15 -2.941406 19.800781 0 24.898438 0 C 30.601562 0 37.140625 -3.539062 41.460938 -16.019531 C 41.578125 -16.441406 41.640625 -16.800781 41.640625 -17.160156 C 41.640625 -19.019531 39.839844 -20.21875 37.921875 -20.21875 C 36.421875 -20.21875 34.800781 -19.378906 34.199219 -17.398438 Z M 34.199219 -17.398438 "/></g></g></g><g fill="#f66604" fill-opacity="0.4"><g transform="translate(124.448187, 105.401643)"><g><path d="M 30.359375 -16.921875 C 27.71875 -9.960938 21.421875 -7.140625 16.320312 -7.140625 C 11.941406 -7.140625 9.179688 -9.238281 9.179688 -12 C 9.179688 -12.539062 9.238281 -13.078125 9.480469 -13.679688 L 9.960938 -14.820312 C 11.699219 -13.738281 13.859375 -13.019531 16.261719 -13.019531 C 21.71875 -13.019531 26.519531 -16.441406 28.140625 -21.839844 C 28.441406 -22.980469 28.621094 -24.121094 28.621094 -25.140625 C 28.621094 -30.839844 24.121094 -35.21875 17.339844 -35.21875 C 12 -35.21875 6.78125 -32.101562 4.679688 -26.101562 L 1.140625 -15.839844 C 0.660156 -14.398438 0.359375 -12.960938 0.359375 -11.578125 C 0.359375 -4.441406 7.078125 0 15.839844 0 C 24.179688 0 33.660156 -4.078125 37.621094 -15.539062 C 37.800781 -16.019531 37.859375 -16.441406 37.859375 -16.800781 C 37.859375 -18.660156 36.179688 -19.679688 34.378906 -19.679688 C 32.699219 -19.679688 30.898438 -18.78125 30.359375 -16.921875 Z M 17.160156 -28.140625 C 18.839844 -28.140625 19.921875 -26.761719 19.921875 -25.019531 C 19.921875 -24.539062 19.859375 -24.058594 19.679688 -23.578125 C 19.078125 -21.601562 17.28125 -20.878906 15.480469 -20.878906 C 14.339844 -20.878906 13.199219 -21.121094 12.359375 -21.601562 L 13.621094 -25.199219 C 14.28125 -27.058594 15.78125 -28.140625 17.160156 -28.140625 Z M 17.160156 -28.140625 "/></g></g></g><g fill="#f66604" fill-opacity="0.4"><g transform="translate(152.888161, 105.401643)"><g><path d="M 29.039062 -17.820312 C 25.980469 -10.078125 20.160156 -7.199219 15.601562 -7.199219 C 11.460938 -7.199219 8.820312 -9.601562 8.820312 -12.660156 C 8.820312 -13.320312 8.941406 -14.039062 9.179688 -14.820312 L 12.839844 -25.199219 C 13.378906 -26.640625 14.578125 -27.539062 15.539062 -27.539062 C 16.738281 -27.539062 17.339844 -26.820312 17.339844 -25.800781 C 17.339844 -25.140625 17.101562 -24.421875 16.679688 -23.578125 C 16.378906 -22.980469 16.199219 -22.378906 16.199219 -21.78125 C 16.199219 -19.679688 18.179688 -18.058594 20.28125 -18.058594 C 22.019531 -18.058594 23.878906 -19.140625 24.960938 -21.898438 C 25.558594 -23.519531 25.800781 -24.960938 25.800781 -26.339844 C 25.800781 -31.980469 21.121094 -35.21875 15.960938 -35.21875 C 11.21875 -35.21875 6.121094 -32.460938 3.960938 -26.160156 L 0.539062 -16.078125 C 0.0585938 -14.640625 -0.179688 -13.199219 -0.179688 -11.878906 C -0.179688 -4.980469 5.820312 0 14.640625 0 C 23.519531 0 32.28125 -5.039062 36.121094 -15.960938 C 36.300781 -16.378906 36.359375 -16.800781 36.359375 -17.160156 C 36.359375 -19.078125 34.5 -20.28125 32.640625 -20.28125 C 31.140625 -20.28125 29.640625 -19.558594 29.039062 -17.820312 Z M 29.039062 -17.820312 "/></g></g></g><g fill="#f66604" fill-opacity="0.4"><g transform="translate(179.708132, 105.401643)"><g><path d="M 33.238281 -16.738281 C 31.140625 -10.679688 28.078125 -7.140625 25.078125 -7.140625 C 24.238281 -7.140625 23.941406 -7.621094 23.941406 -8.160156 C 23.941406 -8.640625 24.058594 -9.238281 24.238281 -9.78125 C 25.140625 -12.601562 25.441406 -13.320312 25.441406 -14.820312 C 25.441406 -16.261719 25.078125 -17.519531 24.238281 -18.421875 C 25.921875 -19.378906 27.480469 -20.878906 28.378906 -23.28125 C 28.738281 -24.300781 28.980469 -25.441406 28.980469 -26.519531 C 28.980469 -31.140625 25.320312 -35.21875 20.101562 -35.21875 C 18.960938 -35.21875 18.058594 -35.160156 16.980469 -34.800781 L 20.699219 -45.539062 C 21 -46.378906 21.238281 -47.160156 21.238281 -47.878906 C 21.238281 -50.519531 19.261719 -52.078125 17.160156 -52.078125 C 15.179688 -52.078125 13.5 -50.761719 12.480469 -47.878906 L -2.519531 -4.558594 C -2.640625 -4.078125 -2.699219 -3.71875 -2.699219 -3.300781 C -2.699219 -1.140625 -0.839844 0 1.199219 0 C 3.359375 0 5.640625 -1.261719 6.421875 -3.660156 L 10.078125 -15.121094 C 11.339844 -13.921875 12.601562 -13.558594 13.679688 -13.558594 C 14.878906 -13.558594 15.839844 -13.980469 16.378906 -14.21875 C 16.800781 -14.398438 16.199219 -13.140625 15.960938 -12.539062 C 15.359375 -10.921875 15.058594 -9.300781 15.058594 -7.800781 C 15.058594 -3.179688 17.941406 0 23.820312 0 C 31.921875 0 37.621094 -6.238281 40.621094 -15.539062 C 40.738281 -15.898438 40.800781 -16.199219 40.800781 -16.5 C 40.800781 -18.300781 38.941406 -19.378906 37.078125 -19.378906 C 35.460938 -19.378906 33.78125 -18.601562 33.238281 -16.738281 Z M 12.421875 -21.78125 L 13.5 -24.839844 C 14.578125 -27 16.441406 -28.140625 18.179688 -28.140625 C 19.679688 -28.140625 20.820312 -27.359375 20.820312 -26.039062 C 20.820312 -25.679688 20.761719 -25.320312 20.578125 -24.898438 C 20.039062 -23.519531 18.78125 -22.558594 17.339844 -22.140625 C 16.621094 -22.261719 15.960938 -22.378906 15.300781 -22.378906 C 14.101562 -22.378906 13.078125 -22.140625 12.421875 -21.78125 Z M 12.421875 -21.78125 "/></g></g></g><g fill="#f66604" fill-opacity="0.4"><g transform="translate(211.148106, 105.401643)"><g/></g></g><g fill="#f66604" fill-opacity="0.4"><g transform="translate(234.06808, 105.401643)"><g><path d="M 25.378906 -12.539062 C 25.378906 -12.480469 25.378906 -13.441406 25.140625 -14.578125 C 25.558594 -14.878906 25.980469 -15.359375 26.339844 -15.898438 C 27.359375 -17.398438 29.160156 -22.621094 29.160156 -25.019531 C 29.160156 -31.140625 24.121094 -35.21875 17.640625 -35.21875 C 12 -35.21875 6.660156 -32.101562 4.738281 -26.761719 L 0.359375 -14.398438 C -0.179688 -12.898438 -0.421875 -11.398438 -0.421875 -10.078125 C -0.421875 -3.78125 4.980469 0 11.101562 0 C 15.78125 0 20.039062 -1.5 22.558594 -5.820312 C 23.640625 -5.519531 24.898438 -5.339844 26.160156 -5.339844 C 33.238281 -5.339844 38.820312 -10.378906 40.859375 -16.679688 C 41.039062 -17.339844 41.160156 -17.941406 41.160156 -18.480469 C 41.160156 -20.699219 39.539062 -21.960938 37.800781 -21.960938 C 36.179688 -21.960938 34.5 -21 33.839844 -18.78125 C 32.519531 -15.058594 29.761719 -12.480469 26.21875 -12.480469 C 25.980469 -12.480469 25.621094 -12.480469 25.378906 -12.539062 Z M 19.800781 -21.78125 C 19.621094 -21.238281 19.441406 -20.761719 19.378906 -20.28125 C 16.078125 -20.640625 13.140625 -17.941406 13.140625 -14.339844 C 13.199219 -12.300781 14.21875 -11.21875 15.359375 -10.261719 C 14.578125 -8.160156 12.839844 -7.140625 10.980469 -7.140625 C 8.640625 -7.140625 8.039062 -8.578125 8.039062 -10.019531 C 8.039062 -11.160156 8.339844 -12.238281 8.578125 -12.839844 L 12.839844 -25.019531 C 13.558594 -27 15.660156 -28.140625 17.519531 -28.140625 C 19.378906 -28.140625 20.578125 -26.878906 20.578125 -25.5 C 20.578125 -24.421875 20.21875 -23.039062 19.800781 -21.78125 Z M 19.800781 -21.78125 "/></g></g></g><g fill="#f66604" fill-opacity="0.4"><g transform="translate(265.388039, 105.401643)"><g><path d="M 34.378906 -17.398438 C 31.679688 -10.199219 28.378906 -7.140625 25.621094 -7.140625 C 24.539062 -7.140625 23.820312 -7.738281 23.820312 -8.578125 C 23.820312 -8.820312 23.878906 -9.179688 24 -9.480469 L 31.140625 -29.519531 C 31.378906 -30.121094 31.441406 -30.660156 31.441406 -31.199219 C 31.441406 -33.601562 29.339844 -35.21875 27.179688 -35.21875 C 25.441406 -35.21875 23.640625 -34.199219 22.738281 -31.679688 L 16.140625 -13.261719 C 14.460938 -9.960938 11.878906 -7.140625 9.480469 -7.140625 C 8.578125 -7.140625 8.101562 -7.738281 8.101562 -8.640625 C 8.101562 -9.121094 8.21875 -9.898438 8.398438 -10.5 L 14.941406 -29.21875 C 15.179688 -29.878906 15.300781 -30.480469 15.300781 -31.078125 C 15.300781 -33.539062 13.140625 -35.21875 10.921875 -35.21875 C 9.238281 -35.21875 7.441406 -34.199219 6.601562 -31.800781 L -0.421875 -11.339844 C -0.78125 -10.261719 -0.960938 -9.179688 -0.960938 -8.160156 C -0.960938 -3.300781 3 0 8.039062 0 C 11.640625 0 14.339844 -1.738281 16.558594 -4.140625 C 18.300781 -1.558594 21.539062 0 25.140625 0 C 30.839844 0 37.378906 -3.539062 41.640625 -16.019531 C 41.761719 -16.378906 41.820312 -16.738281 41.820312 -17.101562 C 41.820312 -19.019531 40.019531 -20.160156 38.160156 -20.160156 C 36.601562 -20.160156 34.980469 -19.320312 34.378906 -17.398438 Z M 34.378906 -17.398438 "/></g></g></g><g fill="#f66604" fill-opacity="0.4"><g transform="translate(297.728011, 105.401643)"><g><path d="M 21.421875 -16.921875 C 19.019531 -10.320312 15.238281 -7.140625 11.761719 -7.140625 C 9.601562 -7.140625 8.28125 -8.460938 8.28125 -10.078125 C 8.28125 -10.5 8.398438 -10.980469 8.519531 -11.398438 L 14.398438 -28.140625 L 18.300781 -28.140625 C 21.359375 -28.140625 22.980469 -30.300781 22.980469 -32.28125 C 22.980469 -33.839844 21.960938 -35.21875 19.679688 -35.21875 L 16.980469 -35.21875 L 21 -46.921875 C 21.121094 -47.339844 21.179688 -47.699219 21.179688 -48.058594 C 21.179688 -50.28125 19.621094 -52.078125 16.980469 -52.078125 C 15 -52.078125 13.320312 -50.699219 12.601562 -48.601562 L 7.800781 -35.21875 L 5.28125 -35.21875 C 2.039062 -35.21875 0.660156 -33.179688 0.660156 -31.261719 C 0.660156 -29.578125 1.679688 -28.140625 3.300781 -28.140625 L 5.28125 -28.140625 L 0.238281 -13.679688 L 0.238281 -13.738281 C -0.238281 -12.300781 -0.480469 -10.980469 -0.480469 -9.71875 C -0.480469 -3.601562 4.980469 0 11.160156 0 C 18.839844 0 25.261719 -5.699219 28.679688 -15.539062 C 28.800781 -15.960938 28.921875 -16.378906 28.921875 -16.738281 C 28.921875 -18.539062 27.179688 -19.679688 25.320312 -19.679688 C 23.820312 -19.679688 22.140625 -18.839844 21.421875 -16.921875 Z M 21.421875 -16.921875 "/></g></g></g><g fill="#f66604" fill-opacity="1"><g transform="translate(60.296598, 102.749993)"><g><path d="M 31.558594 -18 C 28.738281 -10.378906 22.378906 -7.5 17.578125 -7.5 C 12.839844 -7.5 8.160156 -10.320312 8.160156 -14.28125 C 8.160156 -15.179688 8.28125 -16.199219 8.640625 -17.21875 L 16.199219 -38.28125 C 17.640625 -42.238281 20.101562 -42.839844 21.539062 -42.839844 C 22.921875 -42.839844 23.878906 -42 23.878906 -40.199219 C 23.878906 -39.359375 23.640625 -38.28125 23.160156 -37.078125 C 22.980469 -36.660156 22.921875 -36.238281 22.921875 -35.820312 C 22.921875 -33.71875 24.960938 -31.980469 27.300781 -31.980469 C 29.398438 -31.980469 31.738281 -33.421875 32.820312 -37.378906 C 33.238281 -38.941406 33.421875 -40.378906 33.421875 -41.640625 C 33.421875 -48.238281 28.199219 -52.078125 21.359375 -52.078125 C 16.980469 -52.078125 10.199219 -50.28125 7.019531 -41.28125 L -0.480469 -19.859375 C -1.140625 -18 -1.5 -15.960938 -1.5 -14.160156 C -1.5 -6.300781 5.699219 0 16.140625 0 C 24.480469 0 34.859375 -4.261719 38.578125 -16.019531 C 38.699219 -16.5 38.761719 -16.921875 38.761719 -17.28125 C 38.761719 -19.378906 36.898438 -20.578125 35.039062 -20.578125 C 33.480469 -20.578125 31.980469 -19.800781 31.558594 -18 Z M 31.558594 -18 "/></g></g></g><g fill="#f66604" fill-opacity="1"><g transform="translate(89.63657, 102.749993)"><g><path d="M 34.199219 -17.398438 C 31.558594 -10.199219 28.140625 -7.140625 25.441406 -7.140625 C 24.300781 -7.140625 23.578125 -7.800781 23.578125 -8.699219 C 23.578125 -8.941406 23.640625 -9.238281 23.761719 -9.480469 L 28.679688 -23.460938 C 29.101562 -24.601562 29.21875 -25.679688 29.21875 -26.699219 C 29.21875 -31.5 25.441406 -35.21875 20.578125 -35.21875 C 19.140625 -35.21875 18 -34.980469 16.738281 -34.441406 L 20.519531 -45.480469 C 20.820312 -46.441406 21.121094 -47.339844 21.121094 -48.121094 C 21.121094 -50.640625 19.140625 -52.078125 17.160156 -52.078125 C 14.820312 -52.078125 13.378906 -50.699219 12.238281 -47.519531 L -2.160156 -6.71875 C -2.460938 -5.878906 -2.578125 -5.101562 -2.578125 -4.378906 C -2.578125 -1.679688 -0.601562 0 1.441406 0 C 3.179688 0 4.980469 -1.078125 5.878906 -3.601562 L 13.140625 -24.121094 C 14.398438 -26.398438 16.441406 -28.140625 18.300781 -28.140625 C 19.5 -28.140625 20.339844 -27.238281 20.339844 -26.160156 C 20.339844 -25.800781 20.28125 -25.441406 20.101562 -25.078125 L 15.71875 -12.539062 C 15.238281 -11.101562 15 -9.78125 15 -8.578125 C 15 -2.941406 19.800781 0 24.898438 0 C 30.601562 0 37.140625 -3.539062 41.460938 -16.019531 C 41.578125 -16.441406 41.640625 -16.800781 41.640625 -17.160156 C 41.640625 -19.019531 39.839844 -20.21875 37.921875 -20.21875 C 36.421875 -20.21875 34.800781 -19.378906 34.199219 -17.398438 Z M 34.199219 -17.398438 "/></g></g></g><g fill="#f66604" fill-opacity="1"><g transform="translate(121.796537, 102.749993)"><g><path d="M 30.359375 -16.921875 C 27.71875 -9.960938 21.421875 -7.140625 16.320312 -7.140625 C 11.941406 -7.140625 9.179688 -9.238281 9.179688 -12 C 9.179688 -12.539062 9.238281 -13.078125 9.480469 -13.679688 L 9.960938 -14.820312 C 11.699219 -13.738281 13.859375 -13.019531 16.261719 -13.019531 C 21.71875 -13.019531 26.519531 -16.441406 28.140625 -21.839844 C 28.441406 -22.980469 28.621094 -24.121094 28.621094 -25.140625 C 28.621094 -30.839844 24.121094 -35.21875 17.339844 -35.21875 C 12 -35.21875 6.78125 -32.101562 4.679688 -26.101562 L 1.140625 -15.839844 C 0.660156 -14.398438 0.359375 -12.960938 0.359375 -11.578125 C 0.359375 -4.441406 7.078125 0 15.839844 0 C 24.179688 0 33.660156 -4.078125 37.621094 -15.539062 C 37.800781 -16.019531 37.859375 -16.441406 37.859375 -16.800781 C 37.859375 -18.660156 36.179688 -19.679688 34.378906 -19.679688 C 32.699219 -19.679688 30.898438 -18.78125 30.359375 -16.921875 Z M 17.160156 -28.140625 C 18.839844 -28.140625 19.921875 -26.761719 19.921875 -25.019531 C 19.921875 -24.539062 19.859375 -24.058594 19.679688 -23.578125 C 19.078125 -21.601562 17.28125 -20.878906 15.480469 -20.878906 C 14.339844 -20.878906 13.199219 -21.121094 12.359375 -21.601562 L 13.621094 -25.199219 C 14.28125 -27.058594 15.78125 -28.140625 17.160156 -28.140625 Z M 17.160156 -28.140625 "/></g></g></g><g fill="#f66604" fill-opacity="1"><g transform="translate(150.236511, 102.749993)"><g><path d="M 29.039062 -17.820312 C 25.980469 -10.078125 20.160156 -7.199219 15.601562 -7.199219 C 11.460938 -7.199219 8.820312 -9.601562 8.820312 -12.660156 C 8.820312 -13.320312 8.941406 -14.039062 9.179688 -14.820312 L 12.839844 -25.199219 C 13.378906 -26.640625 14.578125 -27.539062 15.539062 -27.539062 C 16.738281 -27.539062 17.339844 -26.820312 17.339844 -25.800781 C 17.339844 -25.140625 17.101562 -24.421875 16.679688 -23.578125 C 16.378906 -22.980469 16.199219 -22.378906 16.199219 -21.78125 C 16.199219 -19.679688 18.179688 -18.058594 20.28125 -18.058594 C 22.019531 -18.058594 23.878906 -19.140625 24.960938 -21.898438 C 25.558594 -23.519531 25.800781 -24.960938 25.800781 -26.339844 C 25.800781 -31.980469 21.121094 -35.21875 15.960938 -35.21875 C 11.21875 -35.21875 6.121094 -32.460938 3.960938 -26.160156 L 0.539062 -16.078125 C 0.0585938 -14.640625 -0.179688 -13.199219 -0.179688 -11.878906 C -0.179688 -4.980469 5.820312 0 14.640625 0 C 23.519531 0 32.28125 -5.039062 36.121094 -15.960938 C 36.300781 -16.378906 36.359375 -16.800781 36.359375 -17.160156 C 36.359375 -19.078125 34.5 -20.28125 32.640625 -20.28125 C 31.140625 -20.28125 29.640625 -19.558594 29.039062 -17.820312 Z M 29.039062 -17.820312 "/></g></g></g><g fill="#f66604" fill-opacity="1"><g transform="translate(177.056483, 102.749993)"><g><path d="M 33.238281 -16.738281 C 31.140625 -10.679688 28.078125 -7.140625 25.078125 -7.140625 C 24.238281 -7.140625 23.941406 -7.621094 23.941406 -8.160156 C 23.941406 -8.640625 24.058594 -9.238281 24.238281 -9.78125 C 25.140625 -12.601562 25.441406 -13.320312 25.441406 -14.820312 C 25.441406 -16.261719 25.078125 -17.519531 24.238281 -18.421875 C 25.921875 -19.378906 27.480469 -20.878906 28.378906 -23.28125 C 28.738281 -24.300781 28.980469 -25.441406 28.980469 -26.519531 C 28.980469 -31.140625 25.320312 -35.21875 20.101562 -35.21875 C 18.960938 -35.21875 18.058594 -35.160156 16.980469 -34.800781 L 20.699219 -45.539062 C 21 -46.378906 21.238281 -47.160156 21.238281 -47.878906 C 21.238281 -50.519531 19.261719 -52.078125 17.160156 -52.078125 C 15.179688 -52.078125 13.5 -50.761719 12.480469 -47.878906 L -2.519531 -4.558594 C -2.640625 -4.078125 -2.699219 -3.71875 -2.699219 -3.300781 C -2.699219 -1.140625 -0.839844 0 1.199219 0 C 3.359375 0 5.640625 -1.261719 6.421875 -3.660156 L 10.078125 -15.121094 C 11.339844 -13.921875 12.601562 -13.558594 13.679688 -13.558594 C 14.878906 -13.558594 15.839844 -13.980469 16.378906 -14.21875 C 16.800781 -14.398438 16.199219 -13.140625 15.960938 -12.539062 C 15.359375 -10.921875 15.058594 -9.300781 15.058594 -7.800781 C 15.058594 -3.179688 17.941406 0 23.820312 0 C 31.921875 0 37.621094 -6.238281 40.621094 -15.539062 C 40.738281 -15.898438 40.800781 -16.199219 40.800781 -16.5 C 40.800781 -18.300781 38.941406 -19.378906 37.078125 -19.378906 C 35.460938 -19.378906 33.78125 -18.601562 33.238281 -16.738281 Z M 12.421875 -21.78125 L 13.5 -24.839844 C 14.578125 -27 16.441406 -28.140625 18.179688 -28.140625 C 19.679688 -28.140625 20.820312 -27.359375 20.820312 -26.039062 C 20.820312 -25.679688 20.761719 -25.320312 20.578125 -24.898438 C 20.039062 -23.519531 18.78125 -22.558594 17.339844 -22.140625 C 16.621094 -22.261719 15.960938 -22.378906 15.300781 -22.378906 C 14.101562 -22.378906 13.078125 -22.140625 12.421875 -21.78125 Z M 12.421875 -21.78125 "/></g></g></g><g fill="#f66604" fill-opacity="1"><g transform="translate(208.496457, 102.749993)"><g/></g></g><g fill="#f66604" fill-opacity="1"><g transform="translate(231.41643, 102.749993)"><g><path d="M 25.378906 -12.539062 C 25.378906 -12.480469 25.378906 -13.441406 25.140625 -14.578125 C 25.558594 -14.878906 25.980469 -15.359375 26.339844 -15.898438 C 27.359375 -17.398438 29.160156 -22.621094 29.160156 -25.019531 C 29.160156 -31.140625 24.121094 -35.21875 17.640625 -35.21875 C 12 -35.21875 6.660156 -32.101562 4.738281 -26.761719 L 0.359375 -14.398438 C -0.179688 -12.898438 -0.421875 -11.398438 -0.421875 -10.078125 C -0.421875 -3.78125 4.980469 0 11.101562 0 C 15.78125 0 20.039062 -1.5 22.558594 -5.820312 C 23.640625 -5.519531 24.898438 -5.339844 26.160156 -5.339844 C 33.238281 -5.339844 38.820312 -10.378906 40.859375 -16.679688 C 41.039062 -17.339844 41.160156 -17.941406 41.160156 -18.480469 C 41.160156 -20.699219 39.539062 -21.960938 37.800781 -21.960938 C 36.179688 -21.960938 34.5 -21 33.839844 -18.78125 C 32.519531 -15.058594 29.761719 -12.480469 26.21875 -12.480469 C 25.980469 -12.480469 25.621094 -12.480469 25.378906 -12.539062 Z M 19.800781 -21.78125 C 19.621094 -21.238281 19.441406 -20.761719 19.378906 -20.28125 C 16.078125 -20.640625 13.140625 -17.941406 13.140625 -14.339844 C 13.199219 -12.300781 14.21875 -11.21875 15.359375 -10.261719 C 14.578125 -8.160156 12.839844 -7.140625 10.980469 -7.140625 C 8.640625 -7.140625 8.039062 -8.578125 8.039062 -10.019531 C 8.039062 -11.160156 8.339844 -12.238281 8.578125 -12.839844 L 12.839844 -25.019531 C 13.558594 -27 15.660156 -28.140625 17.519531 -28.140625 C 19.378906 -28.140625 20.578125 -26.878906 20.578125 -25.5 C 20.578125 -24.421875 20.21875 -23.039062 19.800781 -21.78125 Z M 19.800781 -21.78125 "/></g></g></g><g fill="#f66604" fill-opacity="1"><g transform="translate(262.73639, 102.749993)"><g><path d="M 34.378906 -17.398438 C 31.679688 -10.199219 28.378906 -7.140625 25.621094 -7.140625 C 24.539062 -7.140625 23.820312 -7.738281 23.820312 -8.578125 C 23.820312 -8.820312 23.878906 -9.179688 24 -9.480469 L 31.140625 -29.519531 C 31.378906 -30.121094 31.441406 -30.660156 31.441406 -31.199219 C 31.441406 -33.601562 29.339844 -35.21875 27.179688 -35.21875 C 25.441406 -35.21875 23.640625 -34.199219 22.738281 -31.679688 L 16.140625 -13.261719 C 14.460938 -9.960938 11.878906 -7.140625 9.480469 -7.140625 C 8.578125 -7.140625 8.101562 -7.738281 8.101562 -8.640625 C 8.101562 -9.121094 8.21875 -9.898438 8.398438 -10.5 L 14.941406 -29.21875 C 15.179688 -29.878906 15.300781 -30.480469 15.300781 -31.078125 C 15.300781 -33.539062 13.140625 -35.21875 10.921875 -35.21875 C 9.238281 -35.21875 7.441406 -34.199219 6.601562 -31.800781 L -0.421875 -11.339844 C -0.78125 -10.261719 -0.960938 -9.179688 -0.960938 -8.160156 C -0.960938 -3.300781 3 0 8.039062 0 C 11.640625 0 14.339844 -1.738281 16.558594 -4.140625 C 18.300781 -1.558594 21.539062 0 25.140625 0 C 30.839844 0 37.378906 -3.539062 41.640625 -16.019531 C 41.761719 -16.378906 41.820312 -16.738281 41.820312 -17.101562 C 41.820312 -19.019531 40.019531 -20.160156 38.160156 -20.160156 C 36.601562 -20.160156 34.980469 -19.320312 34.378906 -17.398438 Z M 34.378906 -17.398438 "/></g></g></g><g fill="#f66604" fill-opacity="1"><g transform="translate(295.076362, 102.749993)"><g><path d="M 21.421875 -16.921875 C 19.019531 -10.320312 15.238281 -7.140625 11.761719 -7.140625 C 9.601562 -7.140625 8.28125 -8.460938 8.28125 -10.078125 C 8.28125 -10.5 8.398438 -10.980469 8.519531 -11.398438 L 14.398438 -28.140625 L 18.300781 -28.140625 C 21.359375 -28.140625 22.980469 -30.300781 22.980469 -32.28125 C 22.980469 -33.839844 21.960938 -35.21875 19.679688 -35.21875 L 16.980469 -35.21875 L 21 -46.921875 C 21.121094 -47.339844 21.179688 -47.699219 21.179688 -48.058594 C 21.179688 -50.28125 19.621094 -52.078125 16.980469 -52.078125 C 15 -52.078125 13.320312 -50.699219 12.601562 -48.601562 L 7.800781 -35.21875 L 5.28125 -35.21875 C 2.039062 -35.21875 0.660156 -33.179688 0.660156 -31.261719 C 0.660156 -29.578125 1.679688 -28.140625 3.300781 -28.140625 L 5.28125 -28.140625 L 0.238281 -13.679688 L 0.238281 -13.738281 C -0.238281 -12.300781 -0.480469 -10.980469 -0.480469 -9.71875 C -0.480469 -3.601562 4.980469 0 11.160156 0 C 18.839844 0 25.261719 -5.699219 28.679688 -15.539062 C 28.800781 -15.960938 28.921875 -16.378906 28.921875 -16.738281 C 28.921875 -18.539062 27.179688 -19.679688 25.320312 -19.679688 C 23.820312 -19.679688 22.140625 -18.839844 21.421875 -16.921875 Z M 21.421875 -16.921875 "/></g></g></g><g fill="#f66503" fill-opacity="0.4"><g transform="translate(77.44434, 330.401638)"><g><path d="M 53.160156 -20.101562 C 51.539062 -20.101562 49.800781 -19.199219 49.199219 -17.28125 C 46.558594 -10.078125 43.261719 -7.140625 40.441406 -7.140625 C 39.238281 -7.140625 38.640625 -7.859375 38.640625 -8.761719 C 38.640625 -9.058594 38.640625 -9.359375 38.761719 -9.601562 L 43.859375 -23.578125 C 44.21875 -24.71875 44.460938 -25.921875 44.460938 -26.941406 C 44.460938 -32.039062 39.960938 -35.21875 34.5 -35.21875 C 32.339844 -35.21875 29.21875 -34.679688 26.460938 -32.460938 C 25.199219 -33.898438 23.21875 -35.21875 19.738281 -35.21875 C 17.28125 -35.21875 15.839844 -34.5 14.761719 -33.839844 C 14.101562 -34.738281 12.78125 -35.21875 11.460938 -35.21875 C 9.601562 -35.21875 7.679688 -34.320312 6.960938 -32.578125 L -2.640625 -4.921875 C -2.820312 -4.378906 -2.878906 -3.898438 -2.878906 -3.480469 C -2.878906 -1.261719 -0.960938 0 1.140625 0 C 3.179688 0 5.21875 -1.199219 6.058594 -3.601562 L 13.199219 -24.121094 C 14.460938 -26.699219 16.378906 -28.140625 18.179688 -28.140625 C 19.378906 -28.140625 20.21875 -27.480469 20.21875 -26.398438 C 20.21875 -26.101562 20.160156 -25.679688 19.980469 -25.261719 L 12.960938 -5.761719 C 12.660156 -4.980469 12.480469 -4.199219 12.480469 -3.539062 C 12.480469 -1.261719 14.28125 0 16.320312 0 C 18.300781 0 20.460938 -1.199219 21.359375 -3.78125 L 28.261719 -23.28125 C 29.339844 -26.28125 31.621094 -28.140625 33.601562 -28.140625 C 34.679688 -28.140625 35.519531 -27.421875 35.519531 -26.28125 C 35.519531 -25.921875 35.460938 -25.5 35.28125 -24.960938 L 30.71875 -12.539062 C 30.238281 -11.160156 30 -9.78125 30 -8.519531 C 30 -3.058594 34.5 0 39.78125 0 C 45.71875 0 52.320312 -3.839844 56.460938 -15.839844 C 56.578125 -16.261719 56.699219 -16.679688 56.699219 -17.101562 C 56.699219 -19.019531 54.960938 -20.101562 53.160156 -20.101562 Z M 53.160156 -20.101562 "/></g></g></g><g fill="#f66503" fill-opacity="0.4"><g transform="translate(124.604295, 330.401638)"><g><path d="M 8.28125 -10.320312 L 14.941406 -29.21875 C 15.179688 -29.878906 15.300781 -30.480469 15.300781 -31.078125 C 15.300781 -33.539062 13.140625 -35.21875 10.921875 -35.21875 C 9.238281 -35.21875 7.441406 -34.199219 6.601562 -31.800781 L -0.660156 -11.160156 C -1.078125 -10.019531 -1.261719 -8.878906 -1.261719 -7.800781 C -1.261719 -3.71875 1.621094 -0.78125 5.519531 0 C -1.800781 1.621094 -9.058594 4.621094 -9.058594 12 C -9.058594 17.820312 -3.660156 21.660156 2.21875 21.660156 C 8.160156 21.660156 13.738281 18.480469 16.261719 11.519531 C 17.101562 9 18.058594 6.359375 18.960938 3.898438 C 27.539062 1.199219 36.359375 -3.480469 40.5 -16.078125 C 40.679688 -16.558594 40.738281 -17.039062 40.738281 -17.460938 C 40.738281 -19.5 39.179688 -20.699219 37.378906 -20.699219 C 35.761719 -20.699219 34.019531 -19.679688 33.179688 -17.339844 C 30.960938 -11.21875 26.941406 -7.621094 22.261719 -5.21875 L 30.71875 -29.640625 C 30.898438 -30.179688 30.960938 -30.660156 30.960938 -31.078125 C 30.960938 -33.539062 28.800781 -35.21875 26.578125 -35.21875 C 24.898438 -35.21875 23.101562 -34.199219 22.261719 -31.800781 L 15.359375 -11.519531 C 13.441406 -8.28125 11.339844 -7.078125 9.71875 -7.078125 C 8.640625 -7.078125 7.980469 -7.738281 7.980469 -8.820312 C 7.980469 -9.238281 8.101562 -9.78125 8.28125 -10.320312 Z M 7.980469 6.660156 L 6.539062 10.738281 C 5.699219 12.960938 3.839844 14.101562 2.039062 14.101562 C 0.660156 14.101562 0.0585938 13.261719 0.0585938 12.179688 C 0.0585938 11.820312 0.121094 11.339844 0.300781 10.921875 C 1.140625 8.820312 4.078125 7.679688 7.980469 6.660156 Z M 7.980469 6.660156 "/></g></g></g><g fill="#f66503" fill-opacity="0.4"><g transform="translate(155.804263, 330.401638)"><g/></g></g><g fill="#f66503" fill-opacity="0.4"><g transform="translate(178.724237, 330.401638)"><g><path d="M 31.859375 -16.980469 C 30.421875 -13.441406 28.320312 -10.980469 25.558594 -9.359375 C 25.679688 -10.140625 25.800781 -10.859375 25.800781 -11.640625 C 25.800781 -15.121094 23.941406 -18.421875 22.261719 -21.238281 C 21.058594 -23.28125 19.859375 -25.320312 19.621094 -27.179688 C 21.300781 -27.898438 22.621094 -29.820312 22.621094 -31.621094 C 22.621094 -34.199219 20.640625 -36.601562 17.640625 -36.601562 C 15.359375 -36.601562 13.078125 -35.460938 11.941406 -33.121094 C 9.601562 -28.558594 7.078125 -23.941406 4.679688 -19.441406 C 0.660156 -18.421875 -1.320312 -13.859375 -1.320312 -10.019531 C -1.320312 -4.140625 4.558594 0.421875 15.179688 0.421875 C 25.621094 0.421875 34.980469 -3.539062 39.179688 -15.660156 C 39.300781 -15.898438 39.300781 -16.199219 39.300781 -16.441406 C 39.300781 -18.179688 37.320312 -19.441406 35.398438 -19.441406 C 33.960938 -19.441406 32.519531 -18.71875 31.859375 -16.980469 Z M 12.839844 -18.601562 L 13.378906 -19.738281 C 15.179688 -17.578125 16.621094 -14.699219 16.621094 -11.878906 C 16.621094 -9.058594 15.121094 -6.71875 11.941406 -6.601562 C 9.898438 -6.601562 8.101562 -7.5 7.441406 -9.058594 C 7.921875 -8.941406 8.398438 -8.941406 8.820312 -8.941406 C 12.300781 -8.941406 14.339844 -11.878906 14.339844 -14.820312 C 14.339844 -16.199219 13.859375 -17.578125 12.839844 -18.601562 Z M 12.839844 -18.601562 "/></g></g></g><g fill="#f66503" fill-opacity="0.4"><g transform="translate(208.664211, 330.401638)"><g><path d="M 34.199219 -17.398438 C 31.558594 -10.199219 28.140625 -7.140625 25.441406 -7.140625 C 24.300781 -7.140625 23.578125 -7.800781 23.578125 -8.699219 C 23.578125 -8.941406 23.640625 -9.238281 23.761719 -9.480469 L 28.679688 -23.460938 C 29.101562 -24.601562 29.21875 -25.679688 29.21875 -26.699219 C 29.21875 -31.5 25.441406 -35.21875 20.578125 -35.21875 C 19.140625 -35.21875 18 -34.980469 16.738281 -34.441406 L 20.519531 -45.480469 C 20.820312 -46.441406 21.121094 -47.339844 21.121094 -48.121094 C 21.121094 -50.640625 19.140625 -52.078125 17.160156 -52.078125 C 14.820312 -52.078125 13.378906 -50.699219 12.238281 -47.519531 L -2.160156 -6.71875 C -2.460938 -5.878906 -2.578125 -5.101562 -2.578125 -4.378906 C -2.578125 -1.679688 -0.601562 0 1.441406 0 C 3.179688 0 4.980469 -1.078125 5.878906 -3.601562 L 13.140625 -24.121094 C 14.398438 -26.398438 16.441406 -28.140625 18.300781 -28.140625 C 19.5 -28.140625 20.339844 -27.238281 20.339844 -26.160156 C 20.339844 -25.800781 20.28125 -25.441406 20.101562 -25.078125 L 15.71875 -12.539062 C 15.238281 -11.101562 15 -9.78125 15 -8.578125 C 15 -2.941406 19.800781 0 24.898438 0 C 30.601562 0 37.140625 -3.539062 41.460938 -16.019531 C 41.578125 -16.441406 41.640625 -16.800781 41.640625 -17.160156 C 41.640625 -19.019531 39.839844 -20.21875 37.921875 -20.21875 C 36.421875 -20.21875 34.800781 -19.378906 34.199219 -17.398438 Z M 34.199219 -17.398438 "/></g></g></g><g fill="#f66503" fill-opacity="0.4"><g transform="translate(240.824178, 330.401638)"><g><path d="M 25.378906 -12.539062 C 25.378906 -12.480469 25.378906 -13.441406 25.140625 -14.578125 C 25.558594 -14.878906 25.980469 -15.359375 26.339844 -15.898438 C 27.359375 -17.398438 29.160156 -22.621094 29.160156 -25.019531 C 29.160156 -31.140625 24.121094 -35.21875 17.640625 -35.21875 C 12 -35.21875 6.660156 -32.101562 4.738281 -26.761719 L 0.359375 -14.398438 C -0.179688 -12.898438 -0.421875 -11.398438 -0.421875 -10.078125 C -0.421875 -3.78125 4.980469 0 11.101562 0 C 15.78125 0 20.039062 -1.5 22.558594 -5.820312 C 23.640625 -5.519531 24.898438 -5.339844 26.160156 -5.339844 C 33.238281 -5.339844 38.820312 -10.378906 40.859375 -16.679688 C 41.039062 -17.339844 41.160156 -17.941406 41.160156 -18.480469 C 41.160156 -20.699219 39.539062 -21.960938 37.800781 -21.960938 C 36.179688 -21.960938 34.5 -21 33.839844 -18.78125 C 32.519531 -15.058594 29.761719 -12.480469 26.21875 -12.480469 C 25.980469 -12.480469 25.621094 -12.480469 25.378906 -12.539062 Z M 19.800781 -21.78125 C 19.621094 -21.238281 19.441406 -20.761719 19.378906 -20.28125 C 16.078125 -20.640625 13.140625 -17.941406 13.140625 -14.339844 C 13.199219 -12.300781 14.21875 -11.21875 15.359375 -10.261719 C 14.578125 -8.160156 12.839844 -7.140625 10.980469 -7.140625 C 8.640625 -7.140625 8.039062 -8.578125 8.039062 -10.019531 C 8.039062 -11.160156 8.339844 -12.238281 8.578125 -12.839844 L 12.839844 -25.019531 C 13.558594 -27 15.660156 -28.140625 17.519531 -28.140625 C 19.378906 -28.140625 20.578125 -26.878906 20.578125 -25.5 C 20.578125 -24.421875 20.21875 -23.039062 19.800781 -21.78125 Z M 19.800781 -21.78125 "/></g></g></g><g fill="#f66503" fill-opacity="0.4"><g transform="translate(272.144149, 330.401638)"><g><path d="M 32.699219 -17.28125 C 30.78125 -12.359375 27.300781 -9.179688 23.160156 -7.679688 L 23.699219 -8.941406 C 25.378906 -13.5 27.121094 -18.480469 28.800781 -23.101562 C 29.160156 -24.121094 29.339844 -25.140625 29.339844 -26.21875 C 29.339844 -31.078125 25.320312 -35.21875 20.640625 -35.21875 C 19.019531 -35.21875 17.101562 -34.921875 15.78125 -33.839844 C 15.898438 -35.28125 13.921875 -36.421875 11.761719 -36.421875 C 9.78125 -36.421875 7.859375 -35.339844 6.960938 -32.820312 L -7.980469 9.421875 C -8.28125 10.199219 -8.398438 10.859375 -8.398438 11.460938 C -8.398438 13.921875 -6.359375 15.179688 -4.199219 15.179688 C -2.21875 15.179688 -0.238281 14.21875 0.480469 12 L 5.28125 -2.21875 C 7.140625 -0.78125 10.738281 0 15.71875 0 C 27.359375 0 36.058594 -4.621094 40.019531 -15.960938 C 40.199219 -16.5 40.320312 -16.980469 40.320312 -17.398438 C 40.320312 -19.378906 38.640625 -20.578125 36.839844 -20.578125 C 35.21875 -20.578125 33.421875 -19.558594 32.699219 -17.28125 Z M 8.460938 -11.039062 L 13.261719 -24.960938 C 13.980469 -27.121094 15.539062 -28.140625 17.21875 -28.140625 C 18.660156 -28.140625 19.980469 -27.121094 19.980469 -25.621094 C 19.980469 -25.078125 19.859375 -24.539062 19.679688 -23.941406 C 18.179688 -19.199219 16.5 -14.761719 14.878906 -10.078125 C 14.21875 -8.28125 12.601562 -7.199219 10.980469 -7.140625 C 9.421875 -7.140625 8.21875 -7.980469 8.21875 -9.660156 C 8.21875 -10.078125 8.28125 -10.558594 8.460938 -11.039062 Z M 8.460938 -11.039062 "/></g></g></g><g fill="#f66503" fill-opacity="1"><g transform="translate(74.792691, 327.749978)"><g><path d="M 53.160156 -20.101562 C 51.539062 -20.101562 49.800781 -19.199219 49.199219 -17.28125 C 46.558594 -10.078125 43.261719 -7.140625 40.441406 -7.140625 C 39.238281 -7.140625 38.640625 -7.859375 38.640625 -8.761719 C 38.640625 -9.058594 38.640625 -9.359375 38.761719 -9.601562 L 43.859375 -23.578125 C 44.21875 -24.71875 44.460938 -25.921875 44.460938 -26.941406 C 44.460938 -32.039062 39.960938 -35.21875 34.5 -35.21875 C 32.339844 -35.21875 29.21875 -34.679688 26.460938 -32.460938 C 25.199219 -33.898438 23.21875 -35.21875 19.738281 -35.21875 C 17.28125 -35.21875 15.839844 -34.5 14.761719 -33.839844 C 14.101562 -34.738281 12.78125 -35.21875 11.460938 -35.21875 C 9.601562 -35.21875 7.679688 -34.320312 6.960938 -32.578125 L -2.640625 -4.921875 C -2.820312 -4.378906 -2.878906 -3.898438 -2.878906 -3.480469 C -2.878906 -1.261719 -0.960938 0 1.140625 0 C 3.179688 0 5.21875 -1.199219 6.058594 -3.601562 L 13.199219 -24.121094 C 14.460938 -26.699219 16.378906 -28.140625 18.179688 -28.140625 C 19.378906 -28.140625 20.21875 -27.480469 20.21875 -26.398438 C 20.21875 -26.101562 20.160156 -25.679688 19.980469 -25.261719 L 12.960938 -5.761719 C 12.660156 -4.980469 12.480469 -4.199219 12.480469 -3.539062 C 12.480469 -1.261719 14.28125 0 16.320312 0 C 18.300781 0 20.460938 -1.199219 21.359375 -3.78125 L 28.261719 -23.28125 C 29.339844 -26.28125 31.621094 -28.140625 33.601562 -28.140625 C 34.679688 -28.140625 35.519531 -27.421875 35.519531 -26.28125 C 35.519531 -25.921875 35.460938 -25.5 35.28125 -24.960938 L 30.71875 -12.539062 C 30.238281 -11.160156 30 -9.78125 30 -8.519531 C 30 -3.058594 34.5 0 39.78125 0 C 45.71875 0 52.320312 -3.839844 56.460938 -15.839844 C 56.578125 -16.261719 56.699219 -16.679688 56.699219 -17.101562 C 56.699219 -19.019531 54.960938 -20.101562 53.160156 -20.101562 Z M 53.160156 -20.101562 "/></g></g></g><g fill="#f66503" fill-opacity="1"><g transform="translate(121.952646, 327.749978)"><g><path d="M 8.28125 -10.320312 L 14.941406 -29.21875 C 15.179688 -29.878906 15.300781 -30.480469 15.300781 -31.078125 C 15.300781 -33.539062 13.140625 -35.21875 10.921875 -35.21875 C 9.238281 -35.21875 7.441406 -34.199219 6.601562 -31.800781 L -0.660156 -11.160156 C -1.078125 -10.019531 -1.261719 -8.878906 -1.261719 -7.800781 C -1.261719 -3.71875 1.621094 -0.78125 5.519531 0 C -1.800781 1.621094 -9.058594 4.621094 -9.058594 12 C -9.058594 17.820312 -3.660156 21.660156 2.21875 21.660156 C 8.160156 21.660156 13.738281 18.480469 16.261719 11.519531 C 17.101562 9 18.058594 6.359375 18.960938 3.898438 C 27.539062 1.199219 36.359375 -3.480469 40.5 -16.078125 C 40.679688 -16.558594 40.738281 -17.039062 40.738281 -17.460938 C 40.738281 -19.5 39.179688 -20.699219 37.378906 -20.699219 C 35.761719 -20.699219 34.019531 -19.679688 33.179688 -17.339844 C 30.960938 -11.21875 26.941406 -7.621094 22.261719 -5.21875 L 30.71875 -29.640625 C 30.898438 -30.179688 30.960938 -30.660156 30.960938 -31.078125 C 30.960938 -33.539062 28.800781 -35.21875 26.578125 -35.21875 C 24.898438 -35.21875 23.101562 -34.199219 22.261719 -31.800781 L 15.359375 -11.519531 C 13.441406 -8.28125 11.339844 -7.078125 9.71875 -7.078125 C 8.640625 -7.078125 7.980469 -7.738281 7.980469 -8.820312 C 7.980469 -9.238281 8.101562 -9.78125 8.28125 -10.320312 Z M 7.980469 6.660156 L 6.539062 10.738281 C 5.699219 12.960938 3.839844 14.101562 2.039062 14.101562 C 0.660156 14.101562 0.0585938 13.261719 0.0585938 12.179688 C 0.0585938 11.820312 0.121094 11.339844 0.300781 10.921875 C 1.140625 8.820312 4.078125 7.679688 7.980469 6.660156 Z M 7.980469 6.660156 "/></g></g></g><g fill="#f66503" fill-opacity="1"><g transform="translate(153.152614, 327.749978)"><g/></g></g><g fill="#f66503" fill-opacity="1"><g transform="translate(176.072588, 327.749978)"><g><path d="M 31.859375 -16.980469 C 30.421875 -13.441406 28.320312 -10.980469 25.558594 -9.359375 C 25.679688 -10.140625 25.800781 -10.859375 25.800781 -11.640625 C 25.800781 -15.121094 23.941406 -18.421875 22.261719 -21.238281 C 21.058594 -23.28125 19.859375 -25.320312 19.621094 -27.179688 C 21.300781 -27.898438 22.621094 -29.820312 22.621094 -31.621094 C 22.621094 -34.199219 20.640625 -36.601562 17.640625 -36.601562 C 15.359375 -36.601562 13.078125 -35.460938 11.941406 -33.121094 C 9.601562 -28.558594 7.078125 -23.941406 4.679688 -19.441406 C 0.660156 -18.421875 -1.320312 -13.859375 -1.320312 -10.019531 C -1.320312 -4.140625 4.558594 0.421875 15.179688 0.421875 C 25.621094 0.421875 34.980469 -3.539062 39.179688 -15.660156 C 39.300781 -15.898438 39.300781 -16.199219 39.300781 -16.441406 C 39.300781 -18.179688 37.320312 -19.441406 35.398438 -19.441406 C 33.960938 -19.441406 32.519531 -18.71875 31.859375 -16.980469 Z M 12.839844 -18.601562 L 13.378906 -19.738281 C 15.179688 -17.578125 16.621094 -14.699219 16.621094 -11.878906 C 16.621094 -9.058594 15.121094 -6.71875 11.941406 -6.601562 C 9.898438 -6.601562 8.101562 -7.5 7.441406 -9.058594 C 7.921875 -8.941406 8.398438 -8.941406 8.820312 -8.941406 C 12.300781 -8.941406 14.339844 -11.878906 14.339844 -14.820312 C 14.339844 -16.199219 13.859375 -17.578125 12.839844 -18.601562 Z M 12.839844 -18.601562 "/></g></g></g><g fill="#f66503" fill-opacity="1"><g transform="translate(206.012562, 327.749978)"><g><path d="M 34.199219 -17.398438 C 31.558594 -10.199219 28.140625 -7.140625 25.441406 -7.140625 C 24.300781 -7.140625 23.578125 -7.800781 23.578125 -8.699219 C 23.578125 -8.941406 23.640625 -9.238281 23.761719 -9.480469 L 28.679688 -23.460938 C 29.101562 -24.601562 29.21875 -25.679688 29.21875 -26.699219 C 29.21875 -31.5 25.441406 -35.21875 20.578125 -35.21875 C 19.140625 -35.21875 18 -34.980469 16.738281 -34.441406 L 20.519531 -45.480469 C 20.820312 -46.441406 21.121094 -47.339844 21.121094 -48.121094 C 21.121094 -50.640625 19.140625 -52.078125 17.160156 -52.078125 C 14.820312 -52.078125 13.378906 -50.699219 12.238281 -47.519531 L -2.160156 -6.71875 C -2.460938 -5.878906 -2.578125 -5.101562 -2.578125 -4.378906 C -2.578125 -1.679688 -0.601562 0 1.441406 0 C 3.179688 0 4.980469 -1.078125 5.878906 -3.601562 L 13.140625 -24.121094 C 14.398438 -26.398438 16.441406 -28.140625 18.300781 -28.140625 C 19.5 -28.140625 20.339844 -27.238281 20.339844 -26.160156 C 20.339844 -25.800781 20.28125 -25.441406 20.101562 -25.078125 L 15.71875 -12.539062 C 15.238281 -11.101562 15 -9.78125 15 -8.578125 C 15 -2.941406 19.800781 0 24.898438 0 C 30.601562 0 37.140625 -3.539062 41.460938 -16.019531 C 41.578125 -16.441406 41.640625 -16.800781 41.640625 -17.160156 C 41.640625 -19.019531 39.839844 -20.21875 37.921875 -20.21875 C 36.421875 -20.21875 34.800781 -19.378906 34.199219 -17.398438 Z M 34.199219 -17.398438 "/></g></g></g><g fill="#f66503" fill-opacity="1"><g transform="translate(238.172529, 327.749978)"><g><path d="M 25.378906 -12.539062 C 25.378906 -12.480469 25.378906 -13.441406 25.140625 -14.578125 C 25.558594 -14.878906 25.980469 -15.359375 26.339844 -15.898438 C 27.359375 -17.398438 29.160156 -22.621094 29.160156 -25.019531 C 29.160156 -31.140625 24.121094 -35.21875 17.640625 -35.21875 C 12 -35.21875 6.660156 -32.101562 4.738281 -26.761719 L 0.359375 -14.398438 C -0.179688 -12.898438 -0.421875 -11.398438 -0.421875 -10.078125 C -0.421875 -3.78125 4.980469 0 11.101562 0 C 15.78125 0 20.039062 -1.5 22.558594 -5.820312 C 23.640625 -5.519531 24.898438 -5.339844 26.160156 -5.339844 C 33.238281 -5.339844 38.820312 -10.378906 40.859375 -16.679688 C 41.039062 -17.339844 41.160156 -17.941406 41.160156 -18.480469 C 41.160156 -20.699219 39.539062 -21.960938 37.800781 -21.960938 C 36.179688 -21.960938 34.5 -21 33.839844 -18.78125 C 32.519531 -15.058594 29.761719 -12.480469 26.21875 -12.480469 C 25.980469 -12.480469 25.621094 -12.480469 25.378906 -12.539062 Z M 19.800781 -21.78125 C 19.621094 -21.238281 19.441406 -20.761719 19.378906 -20.28125 C 16.078125 -20.640625 13.140625 -17.941406 13.140625 -14.339844 C 13.199219 -12.300781 14.21875 -11.21875 15.359375 -10.261719 C 14.578125 -8.160156 12.839844 -7.140625 10.980469 -7.140625 C 8.640625 -7.140625 8.039062 -8.578125 8.039062 -10.019531 C 8.039062 -11.160156 8.339844 -12.238281 8.578125 -12.839844 L 12.839844 -25.019531 C 13.558594 -27 15.660156 -28.140625 17.519531 -28.140625 C 19.378906 -28.140625 20.578125 -26.878906 20.578125 -25.5 C 20.578125 -24.421875 20.21875 -23.039062 19.800781 -21.78125 Z M 19.800781 -21.78125 "/></g></g></g><g fill="#f66503" fill-opacity="1"><g transform="translate(269.4925, 327.749978)"><g><path d="M 32.699219 -17.28125 C 30.78125 -12.359375 27.300781 -9.179688 23.160156 -7.679688 L 23.699219 -8.941406 C 25.378906 -13.5 27.121094 -18.480469 28.800781 -23.101562 C 29.160156 -24.121094 29.339844 -25.140625 29.339844 -26.21875 C 29.339844 -31.078125 25.320312 -35.21875 20.640625 -35.21875 C 19.019531 -35.21875 17.101562 -34.921875 15.78125 -33.839844 C 15.898438 -35.28125 13.921875 -36.421875 11.761719 -36.421875 C 9.78125 -36.421875 7.859375 -35.339844 6.960938 -32.820312 L -7.980469 9.421875 C -8.28125 10.199219 -8.398438 10.859375 -8.398438 11.460938 C -8.398438 13.921875 -6.359375 15.179688 -4.199219 15.179688 C -2.21875 15.179688 -0.238281 14.21875 0.480469 12 L 5.28125 -2.21875 C 7.140625 -0.78125 10.738281 0 15.71875 0 C 27.359375 0 36.058594 -4.621094 40.019531 -15.960938 C 40.199219 -16.5 40.320312 -16.980469 40.320312 -17.398438 C 40.320312 -19.378906 38.640625 -20.578125 36.839844 -20.578125 C 35.21875 -20.578125 33.421875 -19.558594 32.699219 -17.28125 Z M 8.460938 -11.039062 L 13.261719 -24.960938 C 13.980469 -27.121094 15.539062 -28.140625 17.21875 -28.140625 C 18.660156 -28.140625 19.980469 -27.121094 19.980469 -25.621094 C 19.980469 -25.078125 19.859375 -24.539062 19.679688 -23.941406 C 18.179688 -19.199219 16.5 -14.761719 14.878906 -10.078125 C 14.21875 -8.28125 12.601562 -7.199219 10.980469 -7.140625 C 9.421875 -7.140625 8.21875 -7.980469 8.21875 -9.660156 C 8.21875 -10.078125 8.28125 -10.558594 8.460938 -11.039062 Z M 8.460938 -11.039062 "/></g></g></g></svg>